<?xml version="1.0" encoding="UTF-8"?>
<svg width="28px" height="28px" viewBox="0 0 28 28" version="1.1" xmlns="http://www.w3.org/2000/svg" xmlns:xlink="http://www.w3.org/1999/xlink">
    <!-- Generator: Sketch 49.2 (51160) - http://www.bohemiancoding.com/sketch -->
    <title>icon/cart square</title>
    <desc>Created with Sketch.</desc>
    <defs>
        <polygon id="path-1" points="2.99401198e-05 0.0609115646 24.9635778 0.0609115646 24.9635778 22 2.99401198e-05 22"></polygon>
    </defs>
    <g id="icon/cart-square" stroke="none" stroke-width="1" fill="none" fill-rule="evenodd">
        <g id="Page-1" transform="translate(2.000000, 3.000000)">
            <mask id="mask-2" fill="white">
                <use xlink:href="#path-1"></use>
            </mask>
            <g id="Clip-4"></g>
            <path d="M7.40242515,12.1883517 C6.57615269,9.84767143 5.80998503,7.48573946 5.03169162,5.12822245 C4.99943114,5.03041973 5.01148204,4.91802517 4.99673653,4.73693673 L22.9396257,4.73693673 C22.7826647,5.25296395 22.6641018,5.67313401 22.5274251,6.08724286 C21.880494,8.04763741 21.2177695,10.0028687 20.5860329,11.9681272 C20.4269012,12.463202 20.1858832,12.6665898 19.6356587,12.6630728 C15.8315419,12.6387531 12.0272006,12.6598551 8.22315868,12.6308211 C7.93947605,12.6285762 7.48101796,12.4111204 7.40242515,12.1883517 M8.56028443,18.6900252 C9.10721557,18.6900252 9.55062874,19.1333177 9.55062874,19.6801748 C9.55062874,20.2268823 9.10721557,20.6701748 8.56028443,20.6701748 C8.01335329,20.6701748 7.56994012,20.2268823 7.56994012,19.6801748 C7.56994012,19.1333177 8.01335329,18.6900252 8.56028443,18.6900252 M19.6007036,18.6900252 C20.1476347,18.6900252 20.5910479,19.1333177 20.5910479,19.6801748 C20.5910479,20.2268823 20.1476347,20.6701748 19.6007036,20.6701748 C19.0537725,20.6701748 18.6103593,20.2268823 18.6103593,19.6801748 C18.6103593,19.1333177 19.0537725,18.6900252 19.6007036,18.6900252 M20.5132036,14.0990592 C21.1803443,14.1047463 21.492994,13.9172224 21.7016766,13.2629844 C22.6767515,10.2057327 23.7089371,7.16673946 24.7176198,4.12018844 C24.8028743,3.86247415 24.8652994,3.59705238 24.9635778,3.24467823 L23.9630539,3.24467823 C17.7828144,3.24467823 11.6024251,3.22724286 5.42241018,3.26548095 C4.59538922,3.27064422 4.20062874,3.02295714 4.03610778,2.22841293 C3.91821856,1.65903197 3.70047904,1.10551497 3.47847305,0.564943537 C3.39793413,0.368889116 3.18176647,0.0959843537 3.01724551,0.0886510204 C2.02293413,0.0441272109 1.02570359,0.0665013605 2.99401198e-05,0.0665013605 L2.99401198e-05,1.49522925 C0.511556886,1.49522925 0.957065868,1.53773265 1.3910479,1.48550136 C2.08693114,1.40161701 2.37076347,1.73086871 2.57480539,2.35532449 C4.15107784,7.1788619 5.74965569,11.995066 7.3641018,16.806032 C7.52742515,17.2927259 7.51028443,17.5866578 7.08303892,17.9486102 C6.23221557,18.6692973 6.06140719,19.9067599 6.5769012,20.8480456 C7.07255988,21.7531136 8.18865269,22.198202 9.25407186,21.9156442 C10.2099102,21.6621952 10.8611078,20.7768823 10.8064671,19.6138007 C10.774506,18.9353177 11.0636527,18.7983789 11.6339371,18.8030184 C13.2277994,18.8157395 14.8224102,18.8318279 16.4155988,18.7948619 C17.1231587,18.7783993 17.4005539,18.9526782 17.3527246,19.7374197 C17.2848353,20.8496918 18.0461377,21.7466782 19.0295958,21.9341272 C20.2828144,22.1729095 21.3177695,21.6299435 21.7373802,20.513481 C22.3388024,18.9133177 21.199506,17.3680048 19.3716617,17.3574537 C16.2117814,17.3391204 13.0516018,17.3596986 9.89164671,17.339719 C9.59389222,17.3379231 9.10991018,17.2426646 9.03176647,17.0567122 C8.65077844,16.1493245 8.37832335,15.1964401 8.02907186,14.1438823 C8.53341317,14.1176918 8.86043413,14.0861136 9.18752994,14.0858143 C12.9628293,14.0822973 16.7382036,14.0668075 20.5132036,14.0990592" id="Fill-3" fill="#4B4B4B" mask="url(#mask-2)"></path>
        </g>
    </g>
</svg>