<?xml version="1.0" encoding="UTF-8" standalone="no"?>
<svg width="50px" height="50px" viewBox="0 0 50 50" version="1.1" xmlns="http://www.w3.org/2000/svg" xmlns:xlink="http://www.w3.org/1999/xlink">
    <!-- Generator: Sketch 3.7.1 (28215) - http://www.bohemiancoding.com/sketch -->
    <title>Artboard 1</title>
    <desc>Created with Sketch.</desc>
    <defs></defs>
    <g id="Tab-UI-Elements" stroke="none" stroke-width="1" fill="none" fill-rule="evenodd">
        <g id="Artboard-1" fill="#000000">
            <path d="M14.3982826,36.3995148 L8.66579672,28.9275781 C8.26585585,28.4062802 8.26585585,27.5374503 8.66579672,27.0161524 C9.0657376,26.4948545 9.73230572,26.4948545 10.1322466,27.0161524 L15.8647325,34.4880891 C16.5313006,35.356919 17.3311823,35.530685 18.2643777,35.530685 C19.0642595,35.530685 19.9974549,35.0093871 20.664023,34.4880891 L42.1063076,9.39097343 C42.5062485,8.86967552 43.1728166,8.86967552 43.5727575,9.39097343 C43.9726984,9.91227135 43.9726984,10.7811012 43.5727575,11.3023991 L22.1304729,36.3995148 C21.1972775,37.4421106 19.7308276,38.3109405 18.2643777,38.3109405 C16.7979278,38.3109405 15.4647916,37.4421106 14.3982826,36.3995148 Z" id="Shape"></path>
        </g>
    </g>
</svg>