<?xml version="1.0" encoding="UTF-8"?>
<svg width="15px" height="15px" viewBox="0 0 15 15" version="1.1" xmlns="http://www.w3.org/2000/svg" xmlns:xlink="http://www.w3.org/1999/xlink">
    <!-- Generator: Sketch 42 (36781) - http://www.bohemiancoding.com/sketch -->
    <title>Group 7</title>
    <desc>Created with Sketch.</desc>
    <defs>
        <path d="M7.15000039,14.3000008 C11.0988366,14.3000008 14.3000008,11.0988366 14.3000008,7.15000039 C14.3000008,3.20116422 11.0988366,0 7.15000039,0 C3.20116422,0 0,3.20116422 0,7.15000039 C0,11.0988366 3.20116422,14.3000008 7.15000039,14.3000008 Z" id="path-1"></path>
        <mask id="mask-2" maskContentUnits="userSpaceOnUse" maskUnits="objectBoundingBox" x="0" y="0" width="14.3000008" height="14.3000008" fill="white">
            <use xlink:href="#path-1"></use>
        </mask>
    </defs>
    <g id="Symbols" stroke="none" stroke-width="1" fill="none" fill-rule="evenodd">
        <g id="Group-7">
            <use id="Oval-3" stroke="#000000" mask="url(#mask-2)" stroke-width="1.8200001" xlink:href="#path-1"></use>
            <path d="M7.74366013,11.1839362 L6.45233633,11.1839362 L6.45233633,5.85000032 L7.74366013,5.85000032 L7.74366013,11.1839362 Z M6.37262498,3.94083185 C6.37262498,3.74243817 6.43550775,3.57770303 6.56127517,3.4466215 C6.68704259,3.31553996 6.86683416,3.25000018 7.10065527,3.25000018 C7.33447639,3.25000018 7.51515364,3.31553996 7.64269243,3.4466215 C7.77023122,3.57770303 7.83399966,3.74243817 7.83399966,3.94083185 C7.83399966,4.13568278 7.77023122,4.29776089 7.64269243,4.42707106 C7.51515364,4.55638122 7.33447639,4.62103533 7.10065527,4.62103533 C6.86683416,4.62103533 6.68704259,4.55638122 6.56127517,4.42707106 C6.43550775,4.29776089 6.37262498,4.13568278 6.37262498,3.94083185 Z" id="i" fill="#000000"></path>
        </g>
    </g>
</svg>