<svg xmlns="http://www.w3.org/2000/svg" viewBox="0 0 43.77 35.09"><defs><style>.cls-1{fill:#fff;}</style></defs><title>Asset 4</title><g id="Layer_2" data-name="Layer 2"><g id="Layer_1-2" data-name="Layer 1"><path class="cls-1" d="M2.29,33.29a2.61,2.61,0,0,1-1.84-.56,1.34,1.34,0,0,1-.45-1,.23.23,0,0,1,.05-.17.31.31,0,0,1,.2,0H.58a.37.37,0,0,1,.19,0,.24.24,0,0,1,.07.16,1,1,0,0,0,.44.66,1.9,1.9,0,0,0,1,.21q1.31,0,1.31-.93A1,1,0,0,0,3.34,31a1.71,1.71,0,0,0-.81-.4l-1-.26a2.12,2.12,0,0,1-1-.57,1.43,1.43,0,0,1-.33-1v-.06a1.53,1.53,0,0,1,.57-1.25A2.43,2.43,0,0,1,2.28,27,2.3,2.3,0,0,1,4,27.54a1.33,1.33,0,0,1,.41,1,.23.23,0,0,1-.05.17.32.32,0,0,1-.2,0H3.85a.36.36,0,0,1-.19,0,.26.26,0,0,1-.07-.16q-.14-.86-1.39-.86a1.39,1.39,0,0,0-.89.25,1,1,0,0,0-.26,1,.66.66,0,0,0,.2.25,1.39,1.39,0,0,0,.36.21,3.89,3.89,0,0,0,.56.17l.94.24a1.6,1.6,0,0,1,1.38,1.67v.06Q4.48,33.29,2.29,33.29Z"/><path class="cls-1" d="M10.3,33.29a2.52,2.52,0,0,1-1-.18,1.68,1.68,0,0,1-.7-.53v2.28a.25.25,0,0,1-.05.18.29.29,0,0,1-.19,0H8a.29.29,0,0,1-.19,0,.25.25,0,0,1-.05-.18V29.57a2.69,2.69,0,0,1,.65-1.93A2.4,2.4,0,0,1,10.19,27,2.48,2.48,0,0,1,12,27.6a2.43,2.43,0,0,1,.64,1.8v1.21Q12.65,33.29,10.3,33.29Zm1.44-3.64q0-1.9-1.56-1.9t-1.57,1.9v1A2.2,2.2,0,0,0,9,32a1.41,1.41,0,0,0,1.16.49q1.57,0,1.57-1.9Z"/><path class="cls-1" d="M18.19,29.46l.58,0,.71.07v-.68A1.22,1.22,0,0,0,19.2,28a1.35,1.35,0,0,0-1-.28,1.73,1.73,0,0,0-.82.15,1,1,0,0,0-.44.53.61.61,0,0,1-.09.16.27.27,0,0,1-.17,0H16.3a.31.31,0,0,1-.2,0,.22.22,0,0,1-.05-.17.8.8,0,0,1,.09-.35,1.6,1.6,0,0,1,.23-.35,1.85,1.85,0,0,1,.75-.52A3.15,3.15,0,0,1,18.24,27a2.49,2.49,0,0,1,1.65.44,1.84,1.84,0,0,1,.5,1.45V31.2a2.06,2.06,0,0,1-.52,1.54,2.31,2.31,0,0,1-1.65.5h-.17a2.82,2.82,0,0,1-1.72-.43,1.65,1.65,0,0,1-.56-1.39,1.8,1.8,0,0,1,.58-1.49A2.91,2.91,0,0,1,18.19,29.46Zm.07.76a2,2,0,0,0-1.22.27,1.12,1.12,0,0,0-.34.92,1,1,0,0,0,.31.81,1.81,1.81,0,0,0,1.11.25h.1a1.24,1.24,0,0,0,1-.33,1.55,1.55,0,0,0,.29-1v-.78l-.68-.07Z"/><path class="cls-1" d="M26.06,32.51q1.17,0,1.34-1a.26.26,0,0,1,.07-.16.36.36,0,0,1,.19,0H28a.31.31,0,0,1,.2,0,.22.22,0,0,1,.05.17,1.48,1.48,0,0,1-.09.46,1.87,1.87,0,0,1-.25.49,2.14,2.14,0,0,1-1.92.79,2.3,2.3,0,0,1-1.75-.63,2.62,2.62,0,0,1-.6-1.87V29.65a3,3,0,0,1,.6-2A2.21,2.21,0,0,1,26,27a2.32,2.32,0,0,1,1.81.63,1.63,1.63,0,0,1,.44,1.11.23.23,0,0,1-.05.17.32.32,0,0,1-.2,0h-.37a.36.36,0,0,1-.19,0,.26.26,0,0,1-.07-.16A1,1,0,0,0,27,28a1.48,1.48,0,0,0-.92-.26,1.36,1.36,0,0,0-1.13.45,2.38,2.38,0,0,0-.35,1.46v1A2.36,2.36,0,0,0,25,32,1.32,1.32,0,0,0,26.06,32.51Z"/><path class="cls-1" d="M32.34,30.4v.22q0,1.89,1.54,1.89a1.27,1.27,0,0,0,1.29-.74.44.44,0,0,1,.1-.17.33.33,0,0,1,.17,0h.41a.47.47,0,0,1,.21,0s0,.07,0,.15a1,1,0,0,1-.13.41,2.06,2.06,0,0,1-.29.44,1.92,1.92,0,0,1-.77.5,3,3,0,0,1-1.07.18,2.31,2.31,0,0,1-1.78-.68,2.74,2.74,0,0,1-.62-1.92v-.86a3.23,3.23,0,0,1,.62-2.12,2.22,2.22,0,0,1,1.8-.74q2.36,0,2.36,2.62v.58a.24.24,0,0,1-.05.18.29.29,0,0,1-.19,0Zm1.51-2.73q-1.5,0-1.51,2h3a2.58,2.58,0,0,0-.35-1.5A1.26,1.26,0,0,0,33.86,27.67Z"/><path class="cls-1" d="M41.58,33.29a2.61,2.61,0,0,1-1.84-.56,1.34,1.34,0,0,1-.45-1,.23.23,0,0,1,.05-.17.31.31,0,0,1,.2,0h.33a.37.37,0,0,1,.19,0,.24.24,0,0,1,.07.16,1,1,0,0,0,.44.66,1.9,1.9,0,0,0,1,.21q1.31,0,1.31-.93a1,1,0,0,0-.23-.68,1.71,1.71,0,0,0-.81-.4l-1-.26a2.12,2.12,0,0,1-1-.57,1.43,1.43,0,0,1-.33-1v-.06A1.53,1.53,0,0,1,40,27.43,2.43,2.43,0,0,1,41.57,27a2.3,2.3,0,0,1,1.74.57,1.33,1.33,0,0,1,.41,1,.23.23,0,0,1-.05.17.32.32,0,0,1-.2,0h-.33a.36.36,0,0,1-.19,0,.26.26,0,0,1-.07-.16q-.14-.86-1.39-.86a1.39,1.39,0,0,0-.89.25,1,1,0,0,0-.26,1,.66.66,0,0,0,.2.25,1.39,1.39,0,0,0,.36.21,3.89,3.89,0,0,0,.56.17l.94.24a1.6,1.6,0,0,1,1.38,1.67v.06Q43.77,33.29,41.58,33.29Z"/><path class="cls-1" d="M22.93,9.36a2.15,2.15,0,1,0-2.15-2.15A2.15,2.15,0,0,0,22.93,9.36Zm0-3.4a1.25,1.25,0,1,1-1.25,1.25A1.25,1.25,0,0,1,22.93,6Z"/><path class="cls-1" d="M26.92,9A12.1,12.1,0,0,0,23.37.23a.55.55,0,0,0-.89,0A12.09,12.09,0,0,0,18.93,9c-.61.53-2.45,2.53-2.45,7.55a.45.45,0,0,0,.76.32c.63-.62,2.55-2.24,3.79-2.24h3.8c1.24,0,3.15,1.62,3.79,2.24a.45.45,0,0,0,.76-.32C29.37,11.57,27.53,9.57,26.92,9Zm-4-8a9.51,9.51,0,0,1,1.29,1.64H21.64A9.64,9.64,0,0,1,22.93,1Zm-1.8,2.53h3.59A12.41,12.41,0,0,1,26,9.26c0,2.12-.48,3.68-1.38,4.52H21.19c-.9-.84-1.38-2.39-1.38-4.52A12.39,12.39,0,0,1,21.13,3.57ZM19,10.33a6.7,6.7,0,0,0,1.17,3.6,8.86,8.86,0,0,0-2.74,1.64A9.61,9.61,0,0,1,19,10.33Zm6.74,3.6a6.71,6.71,0,0,0,1.17-3.61,9.51,9.51,0,0,1,1.57,5.25A8.87,8.87,0,0,0,25.71,13.93Z"/><path class="cls-1" d="M22.93,15.83a.45.45,0,0,0-.45.45v3.27a.45.45,0,0,0,.89,0V16.28A.45.45,0,0,0,22.93,15.83Z"/><path class="cls-1" d="M24.72,15.83a.45.45,0,0,0-.45.45v2.14a.45.45,0,0,0,.89,0V16.28A.45.45,0,0,0,24.72,15.83Z"/><path class="cls-1" d="M21.13,15.83a.45.45,0,0,0-.45.45v2.14a.45.45,0,0,0,.89,0V16.28A.45.45,0,0,0,21.13,15.83Z"/></g></g></svg>