<?xml version="1.0" encoding="UTF-8"?>
<svg width="124px" height="31px" viewBox="0 0 124 31" version="1.1" xmlns="http://www.w3.org/2000/svg" xmlns:xlink="http://www.w3.org/1999/xlink">
    <!-- Generator: Sketch 41.2 (35397) - http://www.bohemiancoding.com/sketch -->
    <title>Group 39</title>
    <desc>Created with Sketch.</desc>
    <defs>
        <path d="M2.03655202,0.00996056879 C1.59523449,0.00996056879 1.29433617,0.341979528 1.19738005,0.474787112 C1.09708061,0.617555265 1.02018437,1.16206635 1.02018437,1.60365157 L1.02018437,3.57916438 C1.02018437,4.0207496 1.09708061,4.21664078 1.19738005,4.35276855 C1.29433617,4.49221652 1.59523449,4.465655 2.03655202,4.465655 L11.2507272,4.465655 L0.705912797,17.7464134 C0.428417682,18.1049939 0.12417605,18.5963819 0.12417605,19.0346469 L0.12417605,21.0566424 C0.12417605,21.4949074 0.338148187,21.6409958 0.435104312,21.7771235 C0.532060436,21.9165715 0.970034657,21.8402071 1.4146955,21.8402071 L16.6033739,21.8402071 C17.0413481,21.8402071 17.1182444,21.9165715 17.2152005,21.7771235 C17.3121566,21.6409958 17.1650508,21.4949074 17.1650508,21.0566424 L17.1650508,19.0778094 C17.1650508,18.6395444 17.3121566,18.0419103 17.2152005,17.8991421 C17.1182444,17.7663345 17.0413481,17.3845127 16.6033739,17.3845127 L6.35277125,17.3845127 L16.5164478,4.50881747 C16.7939428,4.15023699 16.7170466,4.06059187 16.7170466,3.62232685 L16.7170466,1.60365157 C16.7170466,1.16206635 16.880869,0.617555265 16.7839129,0.474787112 C16.6869568,0.341979528 16.6301204,0.00996056879 16.1888029,0.00996056879 L2.03655202,0.00996056879 L2.03655202,0.00996056879 Z" id="path-1"></path>
        <path d="M5.06368463,0.969495362 C3.93030096,1.38119887 3.01757606,1.95891186 2.32550994,2.70263433 C1.46962139,3.63560761 1.0383338,4.63830486 1.0383338,5.71072612 C1.0383338,6.01286336 1.12191666,6.251917 1.2890824,6.4046457 C1.45290481,6.55405424 1.75714645,6.64701955 2.19846398,6.64701955 L4.8998622,6.64701955 C5.34117973,6.64701955 5.64542135,6.58393594 5.80924381,6.48765048 C5.9764095,6.39136496 6.11348543,6.16891228 6.22715811,5.8402135 C6.44781691,5.20937747 6.83229807,4.75783168 7.3872883,4.4988569 C7.94227852,4.23988211 8.6477179,4.10375433 9.50360647,4.10375433 C10.7473195,4.10375433 11.6901342,4.39261083 12.2852443,4.97032382 C12.877011,5.54803679 13.1979691,6.61713785 13.1979691,8.18426735 L13.1979691,9.25336842 C12.3019608,9.17368385 11.6901342,9.11060025 10.8743655,9.06743775 C10.0585967,9.03091568 9.32306746,9.00767436 8.68449436,9.00767436 C7.52436418,9.00767436 6.42441371,9.12388099 5.4013594,9.35961447 C4.37830512,9.59202773 3.47561017,9.97716975 2.70330449,10.5117203 C1.92431218,11.0462708 1.31917223,11.7700721 0.874511377,12.6731637 C0.429850531,13.5828956 0.209191765,14.7084399 0.209191765,16.0531167 C0.209191765,18.4702147 0.907944525,20.0971076 2.30545005,21.1828096 C3.70295556,22.2685116 5.86608015,22.6835353 8.7981671,22.6835353 L9.95829728,22.6835353 C11.5095952,22.6835353 12.7934281,22.6204517 13.8198257,22.2353097 C14.8428799,21.8468475 15.6586487,21.3919816 16.267132,20.7312638 C16.8756152,20.0705461 17.1832002,19.3467447 17.4306055,18.4967762 C17.6813541,17.6434875 17.6846974,16.7968392 17.6846974,15.8904274 L17.6846974,7.85556857 C17.6846974,6.64369939 17.6746675,5.57459832 17.4105456,4.63830486 C17.1497671,3.70533158 16.8154356,2.92176684 16.1634893,2.29093082 C15.5148862,1.65677461 14.6489677,1.17534711 13.5690771,0.846648348 C12.4891864,0.517949577 11.135144,0.351940097 9.50360647,0.351940097 C7.67815665,0.351940097 6.1970683,0.557791854 5.06368463,0.969495362 L5.06368463,0.969495362 Z M5.9764095,18.231161 C5.34117973,17.7630143 5.02356485,17.0657745 5.02356485,15.8871072 C5.02356485,14.7051197 5.34117973,13.9315155 5.9764095,13.4368073 C6.6149826,12.942099 7.59457383,12.7262867 8.92186971,12.7262867 C9.44677013,12.7262867 10.0786566,12.7561684 10.7707227,12.7827299 C11.4627888,12.8092915 12.3019608,12.8956164 13.1979691,13.0051826 L13.1979691,14.8578484 C13.1979691,16.4249779 12.8870409,17.2815868 12.3053041,17.9423046 C11.7269107,18.5997021 10.7339463,18.6760664 9.3799038,18.6760664 L8.67446443,18.6760664 L8.39362601,18.6760664 C7.36722842,18.6760664 6.56148959,18.6561453 5.9764095,18.231161 L5.9764095,18.231161 Z" id="path-3"></path>
        <path d="M7.67951005,1.0525001 C6.65311246,1.52064683 5.84068702,2.16476362 4.9446787,2.99149082 L4.9446787,2.12492134 C4.9446787,1.63021309 5.09847117,1.04917991 4.92127549,0.896451192 C4.73739319,0.747042661 4.63375043,0.40838332 4.10550672,0.40838332 L1.90560568,0.40838332 C1.3840486,0.40838332 0.745475506,0.747042661 0.564936517,0.896451192 C0.384397524,1.04917991 0.00994628416,1.63021309 0.00994628416,2.12492134 L0.00994628416,21.328898 C0.00994628416,21.8236062 0.384397524,22.0028964 0.564936517,22.1556251 C0.745475506,22.3050337 1.3840486,22.2386299 1.90560568,22.2386299 L4.18908959,22.2386299 C4.71398998,22.2386299 4.78085628,22.3050337 4.96139527,22.1556251 C5.14193426,22.0028964 4.9446787,21.8236062 4.9446787,21.328898 L4.9446787,9.25336842 C4.9446787,7.79912533 5.60999828,6.66694071 6.37227405,5.85681445 C7.13120648,5.04336799 8.32142648,4.63830486 9.64872241,4.63830486 C11.0027648,4.63830486 11.8385935,4.9769642 12.3501206,5.65096267 C12.8616478,6.32164098 13.0187836,7.29113637 13.0187836,8.55280841 L13.0187836,21.328898 C13.0187836,21.8236062 13.2762188,22.0028964 13.4567578,22.1556251 C13.6372967,22.3050337 14.1621972,22.2386299 14.6870975,22.2386299 L16.9705814,22.2386299 C17.4954819,22.2386299 17.6726775,22.3050337 17.8565598,22.1556251 C18.0337555,22.0028964 17.953516,21.8236062 17.953516,21.328898 L17.953516,7.81240613 C17.953516,5.47499265 17.5656915,3.64888836 16.4456811,2.33077309 C15.3223274,1.01265782 13.7576561,0.355260286 11.4073059,0.355260286 C10.1100998,0.355260286 8.70256436,0.587673557 7.67951005,1.0525001 L7.67951005,1.0525001 Z" id="path-5"></path>
        <path d="M2.46402289,2.80556021 C0.819112088,4.43909349 0.0300898318,6.73998485 0.0300898318,9.70823436 L0.0300898318,13.1280297 C0.0300898318,16.0962792 0.78567894,18.3639686 2.25339407,19.9310981 C3.7211092,21.4949074 5.62345522,22.2784722 8.39171975,22.2784722 C10.7119801,22.2784722 12.590923,21.6609169 13.4869313,20.4224862 L13.4869313,22.4843239 C13.4869313,23.8290007 13.3531987,24.8184172 12.634386,25.4525734 C11.8854835,26.1929757 10.8256528,26.5648369 9.21751846,26.5648369 C8.33154008,26.5648369 7.71302686,26.4685514 7.2416195,26.2726603 C6.77021214,26.0834094 6.37235772,25.724829 5.98453323,25.2035592 C5.76053115,24.8715403 5.58333547,24.4598367 5.41616973,24.3635512 C5.2523473,24.2705859 5.02834522,24.0215717 4.72410359,24.0215717 L1.9859289,24.0215717 C1.23702642,24.0215717 0.869261809,24.4797579 0.869261809,25.0043478 C0.869261809,26.5415956 1.61482097,27.8530705 3.1059393,28.7296005 C4.60040095,29.6094508 6.64650953,30.0975186 9.24760832,30.0975186 C12.5942662,30.0975186 14.8108839,29.4866038 16.3454653,28.2083308 C17.8800467,26.9300578 18.4216637,24.9147027 18.4216637,22.1124627 L18.4216637,8.84498507 C18.4216637,6.15231132 17.8332403,4.06391206 16.2017027,2.57646712 C14.5668219,1.09566257 12.3836374,0.351940097 9.424804,0.351940097 C6.40913418,0.351940097 4.11227701,1.17202693 2.46402289,2.80556021 L2.46402289,2.80556021 Z M4.96482224,12.4673119 L4.96482224,9.91408614 C4.96482224,8.01825786 5.34930341,6.64037918 6.07145937,5.77380968 C6.79027201,4.90724021 7.94705892,4.47561557 9.52510341,4.47561557 C11.0730581,4.47561557 12.1730086,4.90724021 12.8951646,5.77380968 C13.6139772,6.64037918 13.9349354,8.01825786 13.9349354,9.91408614 L13.9349354,12.4673119 C13.9349354,16.2324069 12.4605337,18.1149544 9.4716104,18.1149544 C6.45594059,18.1149544 4.96482224,16.2324069 4.96482224,12.4673119 L4.96482224,12.4673119 Z" id="path-7"></path>
    </defs>
    <g id="Page-1" stroke="none" stroke-width="1" fill="none" fill-rule="evenodd">
        <g id="Group-39">
            <polygon id="Fill-1" fill="#c00" points="0.0534219277 0.391278619 0.0367053544 0.480923738 13.2528281 7.0715001 26.4890108 7.0715001 13.2528281 0.391278619"></polygon>
            <polygon id="Fill-2" fill="#c00" points="0.0534219277 16.4317786 0.0367053544 16.5181035 13.2528281 23.112 26.4890108 23.112 13.2528281 16.4317786"></polygon>
            <polygon id="Fill-3" fill="#c00" points="13.2538311 8.41152861 0.0343650342 15.0054251 0.0544249218 15.0917501 13.2538311 15.0917501 26.4866705 8.41152861"></polygon>
            <g id="Group-6" transform="translate(34.004309, 0.826556)">
                <g id="Fill-4-Clipped">
                    <mask id="mask-2" fill="white">
                        <use xlink:href="#path-1"></use>
                    </mask>
                    <g id="path-1"></g>
                    <polygon id="Fill-4" fill="#FFFFFF" mask="url(#mask-2)" points="-5.27527712 27.2222345 22.6480868 27.2222345 22.6480868 -5.34882543 -5.27527712 -5.34882543"></polygon>
                </g>
            </g>
            <g id="Group-9" transform="translate(55.914960, 0.428133)">
                <g id="Fill-7-Clipped">
                    <mask id="mask-4" fill="white">
                        <use xlink:href="#path-3"></use>
                    </mask>
                    <g id="path-3"></g>
                    <polygon id="Fill-7" fill="#FFFFFF" mask="url(#mask-4)" points="-5.18691807 28.0456415 23.0841505 28.0456415 23.0841505 -5.0068459 -5.18691807 -5.0068459"></polygon>
                </g>
            </g>
            <g id="Group-12" transform="translate(80.316460, 0.428133)">
                <g id="Fill-10-Clipped">
                    <mask id="mask-6" fill="white">
                        <use xlink:href="#path-5"></use>
                    </mask>
                    <g id="path-5"></g>
                    <polygon id="Fill-10" fill="#FFFFFF" mask="url(#mask-6)" points="-5.38616354 27.6140168 23.3696857 27.6140168 23.3696857 -5.0068459 -5.38616354 -5.0068459"></polygon>
                </g>
            </g>
            <g id="Group-15" transform="translate(104.966635, 0.428133)">
                <g id="Fill-13-Clipped">
                    <mask id="mask-8" fill="white">
                        <use xlink:href="#path-7"></use>
                    </mask>
                    <g id="path-7"></g>
                    <polygon id="Fill-13" fill="#FFFFFF" mask="url(#mask-8)" points="-5.36602 35.4596249 23.8211168 35.4596249 23.8211168 -5.0068459 -5.36602 -5.0068459"></polygon>
                </g>
            </g>
        </g>
    </g>
</svg>