<svg xmlns="http://www.w3.org/2000/svg" viewBox="0 0 36.13 28.93"><defs><style>.cls-1{fill:#fff;}</style></defs><title>Asset 6</title><g id="Layer_2" data-name="Layer 2"><g id="Layer_1-2" data-name="Layer 1"><path class="cls-1" d="M2.47,28.93a2.46,2.46,0,0,1-1.83-.65A2.51,2.51,0,0,1,0,26.44V25.22a2.7,2.7,0,0,1,.65-1.93,2.4,2.4,0,0,1,1.83-.68,2.46,2.46,0,0,1,1.83.65,2.51,2.51,0,0,1,.65,1.84v1.21a2.69,2.69,0,0,1-.65,1.93A2.4,2.4,0,0,1,2.47,28.93Zm0-.78Q4,28.15,4,26.25v-1q0-1.9-1.57-1.9T.91,25.29v1Q.91,28.15,2.47,28.15Z"/><path class="cls-1" d="M11,20.62c.08,0,.14,0,.16,0a.32.32,0,0,1,0,.18v.31a.33.33,0,0,1,0,.18s-.08,0-.16,0h-.33a1,1,0,0,0-.73.21,1,1,0,0,0-.21.71v.47h1c.08,0,.14,0,.16,0A.34.34,0,0,1,11,23v.3a.34.34,0,0,1,0,.18s-.08,0-.16,0h-1v5a.25.25,0,0,1-.05.18.29.29,0,0,1-.19,0H9.05a.29.29,0,0,1-.19,0,.25.25,0,0,1-.05-.18v-5H8.08c-.08,0-.14,0-.16,0a.34.34,0,0,1,0-.18V23a.34.34,0,0,1,0-.18s.08,0,.16,0h.73v-.52A1.57,1.57,0,0,1,9.27,21a1.85,1.85,0,0,1,1.31-.42Z"/><path class="cls-1" d="M19.75,21.7a.6.6,0,0,1-.42-.14.48.48,0,0,1-.16-.38V21a.47.47,0,0,1,.16-.37.6.6,0,0,1,.42-.14.65.65,0,0,1,.44.14.46.46,0,0,1,.16.37v.18a.47.47,0,0,1-.16.38A.65.65,0,0,1,19.75,21.7Zm.45,6.84a.25.25,0,0,1-.05.18.29.29,0,0,1-.19,0h-.42a.29.29,0,0,1-.19,0,.25.25,0,0,1-.05-.18V23a.25.25,0,0,1,.05-.18.29.29,0,0,1,.19,0H20a.29.29,0,0,1,.19,0,.25.25,0,0,1,.05.18Z"/><path class="cls-1" d="M26,28.15q1.17,0,1.34-1a.26.26,0,0,1,.07-.16.36.36,0,0,1,.19,0H28a.31.31,0,0,1,.2,0,.22.22,0,0,1,.05.17,1.47,1.47,0,0,1-.09.46,1.89,1.89,0,0,1-.25.49,2.15,2.15,0,0,1-1.92.79,2.3,2.3,0,0,1-1.75-.63,2.62,2.62,0,0,1-.6-1.87V25.3a3,3,0,0,1,.6-2A2.21,2.21,0,0,1,26,22.61a2.32,2.32,0,0,1,1.81.63,1.64,1.64,0,0,1,.44,1.11.22.22,0,0,1-.05.17.31.31,0,0,1-.2,0h-.37a.36.36,0,0,1-.19,0,.26.26,0,0,1-.07-.16,1,1,0,0,0-.4-.74,1.48,1.48,0,0,0-.92-.26,1.36,1.36,0,0,0-1.13.45,2.38,2.38,0,0,0-.35,1.46v1a2.36,2.36,0,0,0,.35,1.44A1.32,1.32,0,0,0,26,28.15Z"/><path class="cls-1" d="M32.26,26v.22q0,1.89,1.54,1.89a1.27,1.27,0,0,0,1.29-.74.43.43,0,0,1,.1-.17.31.31,0,0,1,.17,0h.41a.45.45,0,0,1,.21,0s0,.07,0,.15a1,1,0,0,1-.13.41,2,2,0,0,1-.29.44,1.93,1.93,0,0,1-.77.5,3,3,0,0,1-1.07.18A2.31,2.31,0,0,1,32,28.26a2.73,2.73,0,0,1-.62-1.92v-.86A3.23,3.23,0,0,1,32,23.35a2.21,2.21,0,0,1,1.8-.74q2.36,0,2.36,2.62v.58a.24.24,0,0,1-.05.18.29.29,0,0,1-.19,0Zm1.51-2.73q-1.5,0-1.51,2h3a2.58,2.58,0,0,0-.35-1.5A1.26,1.26,0,0,0,33.77,23.32Z"/><path class="cls-1" d="M16.5,20.62c.08,0,.14,0,.16,0a.32.32,0,0,1,0,.18v.31a.33.33,0,0,1,0,.18s-.08,0-.16,0h-.33a1,1,0,0,0-.73.21,1,1,0,0,0-.21.71v.47h1c.08,0,.14,0,.16,0a.34.34,0,0,1,0,.18v.3a.34.34,0,0,1,0,.18s-.08,0-.16,0h-1v5a.25.25,0,0,1-.05.18.29.29,0,0,1-.19,0h-.42a.29.29,0,0,1-.19,0,.25.25,0,0,1-.05-.18v-5h-.73c-.08,0-.14,0-.16,0a.34.34,0,0,1,0-.18V23a.34.34,0,0,1,0-.18s.08,0,.16,0h.73v-.52A1.57,1.57,0,0,1,14.78,21a1.85,1.85,0,0,1,1.31-.42Z"/><circle class="cls-1" cx="23.55" cy="5.6" r="1.14"/><circle class="cls-1" cx="14.62" cy="1.14" r="1.14"/><circle class="cls-1" cx="19.08" cy="1.14" r="1.14"/><circle class="cls-1" cx="23.55" cy="1.14" r="1.14"/><circle class="cls-1" cx="14.62" cy="5.6" r="1.14"/><circle class="cls-1" cx="14.62" cy="10.06" r="1.14"/><circle class="cls-1" cx="19.03" cy="10.07" r="1.14"/><circle class="cls-1" cx="23.55" cy="10.07" r="1.14"/></g></g></svg>