<?xml version="1.0" encoding="UTF-8"?>
<svg width="100px" height="100px" viewBox="0 0 100 100" version="1.1" xmlns="http://www.w3.org/2000/svg" xmlns:xlink="http://www.w3.org/1999/xlink">
    <!-- Generator: Sketch 43.2 (39069) - http://www.bohemiancoding.com/sketch -->
    <title>plus</title>
    <desc>Created with Sketch.</desc>
    <defs>
        <path d="M71.0118952,69.0484572 C71.5284994,69.2985744 72.2634643,69.7243998 73.0102669,70.2993132 C74.4131542,71.3793023 75.2965116,72.5640493 75.2965116,73.9772165 L75.2965116,76.9598945 C75.2965116,79.0520847 73.3661196,80.450064 71.5815482,80.4734822 C71.231173,80.4780919 68.0183323,80.5177167 62.8740239,80.5809545 C60.9335279,80.6048085 59.5645472,80.6216247 56.826589,80.655245 C54.6362224,80.6821339 54.6362224,80.6821339 54.072257,80.6889535 L49.2927469,80.6889535 L44.9113718,80.6888531 C44.3637776,80.6821339 44.3637776,80.6821339 42.173411,80.655245 C39.4354528,80.6216247 38.0664721,80.6048085 36.1498991,80.5812486 C30.9816677,80.5177167 27.768827,80.4780919 27.418497,80.4734828 C25.6338804,80.450064 23.7034884,79.0520847 23.7034884,76.9598945 L23.7034884,73.9772165 C23.7034884,72.5640493 24.5868458,71.3793023 25.9897331,70.2993132 C26.7365357,69.7243998 27.4715006,69.2985744 27.9512841,69.0669916 L41.7597803,61.8467245 C39.6209485,60.3120525 37.3607202,57.2537396 36.3052795,53.8758909 C35.8362558,52.3766914 35.5642268,50.3816475 35.437123,47.9565554 C35.33703,46.0468189 35.3329314,44.1856869 35.3841546,41.8305743 C35.3843069,41.8235755 35.4077387,40.8020463 35.4113537,40.5945042 C35.4524449,38.0961875 37.1640938,34.8265326 39.3112458,32.8388285 C42.49339,29.890945 45.4473079,28.2063953 49.5084593,28.2063953 C53.5565002,28.2063953 56.5069019,29.8912155 59.6884154,32.8385148 C61.8359062,34.8265326 63.5475551,38.0961875 63.5886245,40.5932138 C63.5922613,40.8020463 63.6156931,41.8235755 63.6158454,41.8305743 C63.6670686,44.1856869 63.66297,46.0468189 63.562877,47.9565554 C63.4357732,50.3816475 63.1637442,52.3766914 62.694862,53.8754385 C61.639386,57.2533998 59.3794894,60.3114597 57.2401705,61.8467335 L71.0118952,69.0484572 Z M54.6753532,63.2919347 C53.8303542,62.2156261 54.0607313,60.781855 55.5581868,59.7667149 C57.2559696,58.6141311 59.243652,55.9728926 60.1478443,53.0791021 C60.5359961,51.8384037 60.7815366,50.0376243 60.8979302,47.8168804 C60.9938022,45.9876796 60.9977762,44.1830843 60.9478717,41.8886022 C60.9478837,41.8891574 60.9242119,40.8571626 60.9204026,40.6383903 C60.8923982,38.9357457 59.5250945,36.3238718 57.8752013,34.7964998 C55.1449575,32.267249 52.7068967,30.875 49.5084593,30.875 C46.2960841,30.875 43.8555496,32.2667792 41.1244599,34.7968135 C39.4749055,36.3238718 38.1076018,38.9357457 38.0795756,40.6396806 C38.0757881,40.8571626 38.0521163,41.8891574 38.0521283,41.8886022 C38.0022238,44.1830843 38.0061978,45.9876796 38.1020698,47.8168804 C38.2184634,50.0376243 38.4640039,51.8384037 38.8522971,53.0795545 C39.756348,55.9728926 41.7440304,58.6141311 43.4410829,59.7662196 C44.9392687,60.781855 45.1696458,62.2156261 44.3246468,63.2919347 C44.1629743,63.4978634 43.9985299,63.6458293 43.8538762,63.7489413 L43.6976522,63.8448377 L29.1510003,71.4503575 C29.068773,71.4901683 28.9044219,71.5764473 28.6866244,71.7026352 C28.3199228,71.9150955 27.9535868,72.1552517 27.6176102,72.4138976 C26.8131463,73.0332005 26.372093,73.6247352 26.372093,73.9772165 L26.372093,76.9598945 C26.372093,77.3625304 26.9745447,77.7988226 27.4535583,77.8051085 C27.8026518,77.8097013 31.0182547,77.8493602 36.1587782,77.9125515 C38.0992592,77.9364052 39.4682295,77.9532214 42.2061732,77.9868414 C44.396528,78.0137302 44.396528,78.0137302 44.927743,78.0203488 L49.7072531,78.0203488 L54.0558858,78.0204493 C54.603472,78.0137302 54.603472,78.0137302 56.7938268,77.9868414 C59.5317705,77.9532214 60.9007408,77.9364052 62.8172991,77.9128456 C67.9817453,77.8493602 71.1973482,77.8097013 71.5464869,77.8051079 C72.0254553,77.7988226 72.627907,77.3625304 72.627907,76.9598945 L72.627907,73.9772165 C72.627907,73.6247352 72.1868537,73.0332005 71.3823898,72.4138976 C71.0464132,72.1552517 70.6800772,71.9150955 70.3133756,71.7026352 C70.0955781,71.5764473 69.931227,71.4901683 69.812179,71.431823 L55.3023478,63.8448377 L55.1461238,63.7489413 C55.0014701,63.6458293 54.8370257,63.4978634 54.6753532,63.2919347 Z M75.1477423,45.0451574 C74.0896307,48.4344041 71.8262057,51.5026576 69.6864586,53.0396297 L83.4646408,60.2650476 C83.9814452,60.5160967 84.7167556,60.9433806 85.4638602,61.519948 C86.8667991,62.6026462 87.75,63.7893712 87.75,65.2032263 L87.75,68.1940501 C87.75,70.2901619 85.8196653,71.6900459 84.0349263,71.7135896 C83.9199161,71.7151048 79.5093674,71.7691286 77.5431181,71.7935021 C76.8062599,71.8026362 76.2015136,71.2126993 76.1923795,70.475841 C76.1832454,69.7389828 76.7731824,69.1342366 77.5100406,69.1251025 C79.4778137,69.10071 83.8862073,69.0467127 83.9997486,69.0452168 C84.4784849,69.0389015 85.0813953,68.6016692 85.0813953,68.1940501 L85.0813953,65.2032263 C85.0813953,64.8485002 84.6393182,64.2544973 83.8334603,63.6325879 C83.4971486,63.3730441 83.1304724,63.1320094 82.7634348,62.9187263 C82.5454397,62.7920508 82.3809322,62.7054172 82.261986,62.6469354 L67.7534559,55.0392296 L67.5972286,54.9430706 C67.4525945,54.8396968 67.2881547,54.6913441 67.1265535,54.4849698 C66.2836907,53.4085841 66.5120856,51.9755735 68.0071997,50.9578616 C69.7050829,49.8021265 71.6941292,47.1527443 72.6001204,44.2507566 C72.9878628,43.0057756 73.2329996,41.199624 73.3492603,38.9716895 C73.4446729,37.1432754 73.4490095,35.3442013 73.4001694,33.0397288 C73.4017592,33.114739 73.3769172,31.9980245 73.3732551,31.7745183 C73.3435484,30.0641467 71.9747234,27.4434608 70.3244205,25.911623 C67.5941739,23.3756043 65.1561479,21.9796512 61.9584614,21.9796512 C62.4759408,21.8910687 62.4759408,21.8910687 62.45952,21.8816804 C62.2922584,21.9469247 62.2922584,21.9469247 61.9376286,21.979653 C59.1358264,21.9813563 56.7229903,23.1705861 54.3735468,25.1936237 C53.8151246,25.6744648 52.9726353,25.6115729 52.4917942,25.0531508 C52.0109531,24.4947286 52.073845,23.6522393 52.6322672,23.1713982 C55.4221581,20.7691042 58.3819645,19.3110465 61.9584614,19.3110465 C66.0076596,19.3110465 68.9583982,21.0005661 72.1402407,23.9560546 C74.2863627,25.9481195 75.9979825,29.225104 76.0414794,31.7294839 C76.0450135,31.945142 76.0695763,33.0493069 76.0681749,32.9831841 C76.1182872,35.3476801 76.1138161,37.2025364 76.014239,39.1107567 C75.8873587,41.5421943 75.6159742,43.5417382 75.1477423,45.0451574 Z M28.675241,25.9119373 C27.0252766,27.4434608 25.6564516,30.0641467 25.626767,31.7732099 C25.6230828,31.9980245 25.5982408,33.114739 25.5998306,33.0397288 C25.5509905,35.3442013 25.5553271,37.1432754 25.6507397,38.9716895 C25.7670004,41.199624 26.0121372,43.0057756 26.3996073,44.2498833 C27.3058708,47.1527443 29.2949171,49.8021265 30.9928003,50.9578616 C32.4879144,51.9755735 32.7163093,53.4085841 31.8734465,54.4849698 C31.7118453,54.6913441 31.5474055,54.8396968 31.4027714,54.9430706 L31.2465441,55.0392296 L16.7013952,62.6654249 C16.6190678,62.7054172 16.4545603,62.7920508 16.2365652,62.9187263 C15.8695276,63.1320094 15.5028514,63.3730441 15.1665397,63.6325879 C14.3606818,64.2544973 13.9186047,64.8485002 13.9186047,65.2032263 L13.9186047,68.1940501 C13.9186047,68.6016692 14.5215151,69.0389015 15.0002286,69.0452165 C15.1137927,69.0467127 19.5221863,69.10071 21.4899594,69.1251025 C22.2268176,69.1342366 22.8167546,69.7389828 22.8076205,70.475841 C22.7984864,71.2126993 22.1937401,71.8026362 21.4568819,71.7935021 C19.4906326,71.7691286 15.0800839,71.7151048 14.965051,71.7135893 C13.1803347,71.6900459 11.25,70.2901619 11.25,68.1940501 L11.25,65.2032263 C11.25,63.7893712 12.1332009,62.6026462 13.5361398,61.519948 C14.2832444,60.9433806 15.0185548,60.5160967 15.4987404,60.2835371 L29.313514,53.03961 C27.1737747,51.5026308 24.9103574,48.4343661 23.8519854,45.0442841 C23.3840258,43.5417382 23.1126413,41.5421943 22.985761,39.1107567 C22.8861839,37.2025364 22.8817128,35.3476801 22.9318251,32.9831841 C22.9304237,33.0493069 22.9549865,31.945142 22.9585426,31.7281754 C23.0020175,29.225104 24.7136373,25.9481195 26.8594208,23.9563689 C30.0416018,21.0005661 32.9923404,19.3110465 37.0415386,19.3110465 C40.6180355,19.3110465 43.5778419,20.7691042 46.3677328,23.1713982 C46.926155,23.6522393 46.9890469,24.4947286 46.5082058,25.0531508 C46.0273647,25.6115729 45.1848754,25.6744648 44.6264532,25.1936237 C42.2785234,23.1718896 39.8672828,21.9828891 37.0677864,21.9796578 C33.8374197,21.9833359 31.4022242,23.3789499 28.675241,25.9119373 Z" id="path-1"></path>
    </defs>
    <g id="Page-1" stroke="none" stroke-width="1" fill="none" fill-rule="evenodd">
        <g id="plus" fill-rule="nonzero">
            <g id="Combined-Shape">
                <use fill="#000000" fill-rule="evenodd" xlink:href="#path-1"></use>
                <path stroke="#000000" stroke-width="0.1" d="M71.0343806,69.0037917 L57.2633404,61.8024261 C59.5390692,60.2584809 61.7327593,57.1222166 62.7425865,53.8903505 C63.1986834,52.4324709 63.4811099,50.4719299 63.6128085,47.9591725 C63.7076491,46.1496501 63.7205436,44.3449191 63.6658335,41.8294871 C63.662309,41.6755888 63.662309,41.6755888 63.6519868,41.2175638 C63.6517045,41.2049262 63.6517045,41.2049262 63.6514224,41.1922827 C63.6446333,40.8879994 63.6400526,40.674785 63.6386169,40.5923432 C63.5980963,38.1286776 61.9239915,34.839941 59.7223821,32.8018233 C56.2343794,29.5705977 53.2948258,28.1563953 49.5084593,28.1563953 C45.7097152,28.1563953 42.7657169,29.5705084 39.2772664,32.8021489 C37.0757855,34.8401474 35.4018995,38.1289312 35.3613604,40.5936819 C35.3599331,40.675628 35.3553525,40.8887526 35.3485589,41.1931733 C35.3482792,41.2057072 35.3482792,41.2057072 35.3479992,41.2182354 C35.3376875,41.6757418 35.3376875,41.6757418 35.3341665,41.8294871 C35.2794564,44.3449191 35.2923509,46.1496501 35.3871915,47.9591725 C35.5188951,50.472026 35.8013353,52.4325307 36.2575602,53.8908198 C37.26732,57.1224706 39.46131,60.259047 41.7306312,61.8873488 L27.9281159,69.0226832 C27.3479266,69.3027015 26.6244756,69.7475674 25.9592326,70.2596935 C24.4337317,71.4340746 23.6534884,72.6310861 23.6534884,73.9772165 L23.6534884,76.9598945 C23.6534884,78.9405295 25.4431598,80.4975655 27.417841,80.5234785 C27.7551532,80.5279164 30.7549702,80.5649338 36.1492845,80.6312448 C38.7503483,80.6632128 38.7503483,80.6632128 42.1727971,80.7052412 C44.1003187,80.7289034 44.1003187,80.7289034 44.6260084,80.7353552 L44.6261039,80.7353564 C44.7574832,80.7369685 44.7574832,80.7369685 44.9107584,80.7388493 L49.2927458,80.7389535 L54.072257,80.7389535 C54.2324656,80.7370199 54.2324656,80.7370199 54.3687124,80.735369 C54.3703565,80.735349 54.3703565,80.735349 54.3720005,80.7353291 C54.9069967,80.7288136 54.9069967,80.7288136 56.8272028,80.7052412 C60.2496517,80.6632128 60.2496517,80.6632128 62.8746385,80.6309508 C68.2478863,80.5648986 71.2450406,80.5279138 71.582206,80.5234779 C73.5568466,80.4975655 75.3465116,78.9405228 75.3465116,76.9598945 L75.3465116,73.9772165 C75.3465116,72.6310861 74.5662683,71.4340746 73.0407674,70.2596935 C72.3714287,69.7444144 71.6506296,69.3022229 71.0343808,69.0037918 L71.0343806,69.0037917 Z M54.6360254,63.3228106 C54.7872008,63.5153688 54.9505255,63.6709176 55.1171014,63.7896562 L55.2761907,63.8874499 L69.7890108,71.4761314 C69.9286252,71.5445753 70.093677,71.6331317 70.2883097,71.7458984 C70.6691789,71.9665671 71.0301901,72.2058625 71.3518893,72.4535173 C72.1172823,73.0427421 72.577907,73.6312611 72.577907,73.9772165 L72.577907,76.9598945 C72.577907,77.3204624 72.0148738,77.7489571 71.5458309,77.7551122 C71.2096271,77.7595355 68.2052401,77.7966091 62.8166845,77.8628494 C60.2156415,77.8948171 60.2156415,77.8948171 56.7932129,77.9368452 C54.8656997,77.9605073 54.8656997,77.9605073 54.3400162,77.966959 L54.3399207,77.9669602 C54.2085442,77.9685723 54.2085442,77.9685723 54.0552723,77.970453 L49.7072542,77.9703488 L44.927743,77.9703488 C44.7829554,77.968541 44.7829554,77.968541 44.6577818,77.9669844 C44.6562802,77.9669657 44.6562802,77.9669657 44.6547786,77.9669471 C44.138082,77.9605537 44.138082,77.9605537 42.2067869,77.9368452 C38.7843585,77.8948171 38.7843585,77.8948171 36.1593928,77.8625553 C30.7920743,77.796576 27.7901915,77.7595331 27.4542161,77.7551128 C26.9851337,77.7489572 26.422093,77.3204681 26.422093,76.9598945 L26.422093,73.9772165 C26.422093,73.6312611 26.8827177,73.0427421 27.6481107,72.4535173 C27.9698099,72.2058625 28.3308211,71.9665671 28.7116903,71.7458984 C28.9013394,71.6360191 29.0713364,71.5444792 29.1727887,71.4953604 L43.7208187,63.8891469 L43.8800333,63.7915536 C44.0494745,63.6709176 44.2127992,63.5153688 44.3639746,63.3228106 C45.2635112,62.1770353 44.9360908,60.7192945 43.4691393,59.7248331 C41.6614633,58.497645 39.7508674,55.787702 38.9000217,53.0646425 C38.5207814,51.8524289 38.2706578,50.078183 38.1520013,47.8142634 C38.061167,46.0811803 38.0489775,44.3328866 38.1021165,41.8896894 L38.1021159,41.8897175 C38.1021172,41.8896592 38.1021172,41.8896592 38.1021192,41.8895758 C38.1021241,41.8893623 38.1021241,41.8893623 38.1021318,41.8890262 C38.1021514,41.8881704 38.1021514,41.8881704 38.1021821,41.8868317 C38.1022599,41.8834406 38.1022599,41.8834406 38.1023799,41.878202 C38.1026813,41.8650379 38.1026813,41.8650379 38.1031358,41.8451598 C38.1042587,41.7960089 38.1042587,41.7960089 38.1058663,41.7254131 C38.1096813,41.5574651 38.1096813,41.5574651 38.1144146,41.3470257 C38.1224046,40.9905135 38.1279089,40.7358222 38.129568,40.6405513 C38.1572808,38.9556737 39.51408,36.3557422 41.1584266,34.833505 C44.103537,32.1052056 46.5077814,30.925 49.5084593,30.925 C52.4960931,30.925 54.8971176,32.105812 57.8412219,34.8331795 C59.4856742,36.3555147 60.8427151,38.9554219 60.8704093,40.6392125 C60.8720788,40.7350961 60.8775892,40.9901507 60.8855827,41.3468642 C60.8903177,41.5574045 60.8903177,41.5574045 60.8941333,41.7253929 C60.8957412,41.7960013 60.8957412,41.7960013 60.8968641,41.8451572 C60.8973187,41.8650369 60.8973187,41.8650369 60.8976201,41.8782016 C60.8977401,41.8834405 60.8977401,41.8834405 60.8978179,41.8868317 C60.8978486,41.8881703 60.8978486,41.8881703 60.8978682,41.8890262 C60.8978759,41.8893623 60.8978759,41.8893623 60.8978808,41.8895755 C60.8978828,41.8896592 60.8978828,41.8896592 60.8978839,41.8897108 L60.897885,41.8897582 C60.9510225,44.3328866 60.938833,46.0811803 60.8479987,47.8142634 C60.7293478,50.078077 60.479237,51.85237 60.1001251,53.0641731 C59.249107,55.787784 57.3384851,58.49768 55.5301031,59.725347 C54.0637964,60.719371 53.7365558,62.1771208 54.6360254,63.3228106 L54.6360254,63.3228106 Z M76.0182397,32.9868467 C76.0182397,32.9868467 76.0182397,32.9868467 76.0182397,32.9868467 L76.0182397,32.9868467 Z M76.1179954,32.9821283 C76.1181466,32.9818596 76.1181396,32.9815593 76.1181317,32.9812196 C76.1179316,32.972448 76.1179316,32.972448 76.1175626,32.9560234 C76.1165892,32.9124724 76.1165892,32.9124724 76.1150797,32.8444091 C76.1113943,32.677551 76.1113943,32.677551 76.1066662,32.4609152 C76.0986397,32.0916976 76.0930153,31.822798 76.0914727,31.7286646 C76.0485558,29.2576756 74.3743666,25.9615862 72.1742563,23.9194085 C68.6858167,20.679134 65.7458881,19.2610465 61.9584614,19.2610465 C58.5731475,19.2610465 55.6044705,20.5461384 52.5996419,23.133509 C52.0202941,23.6323686 51.9550455,24.5064283 52.453905,25.0857761 C52.9527646,25.6651238 53.8268243,25.7303724 54.4061721,25.2315129 C56.895332,23.0881696 59.2901072,22.0312625 61.937659,22.029653 C62.1007953,22.014807 62.1487761,22.010113 62.1999064,22.003779 C62.2630446,21.9959574 62.3049306,21.9879454 62.347194,21.9754931 C62.3669903,21.9696604 62.3835999,21.9641247 62.4094597,21.9544902 C65.1948239,22.1560681 67.4983947,23.3548806 70.2903923,25.9482574 C71.9354211,27.4751997 73.2938851,30.0839656 73.3232627,31.7753866 C73.3248644,31.873148 73.3305793,32.1467202 73.3386935,32.5201534 C73.3434638,32.738806 73.3434638,32.738806 73.347162,32.9062223 C73.3486705,32.9742163 73.3486705,32.9742163 73.3496322,33.0171902 C73.349993,33.0332233 73.349993,33.0332233 73.3501828,33.0414975 C73.3502162,33.042926 73.3502162,33.042926 73.3502385,33.0438552 C73.3502478,33.0442316 73.3502478,33.0442316 73.3502558,33.0445375 C73.3502607,33.0447162 73.3502607,33.0447162 73.3502622,33.0447612 L73.3503378,33.0464189 C73.4502207,33.041644 73.4502207,33.041644 73.4501582,33.0386694 C73.4021826,35.4944474 73.3897329,37.2366373 73.2993283,38.9690839 C73.1808024,41.2404245 72.9310797,43.019949 72.5523821,44.2358888 C71.6996305,46.9673441 69.7874464,49.685578 67.9790646,50.9165286 C66.515459,51.9127929 66.1897136,53.3696697 67.0871867,54.5157959 C67.2382944,54.7087694 67.4016094,54.8647144 67.5681548,54.9837488 L67.7272473,55.0818102 L82.2387665,62.6912169 C82.3782751,62.7598274 82.5435148,62.8487611 82.7383136,62.9619573 C83.1195401,63.1834855 83.4808905,63.4236551 83.8029125,63.6721711 C84.570045,64.2641947 85.0313953,64.8551124 85.0313953,65.2032263 L85.0313953,68.1940501 C85.0313953,68.558825 84.4689192,68.9890233 83.9990891,68.9952212 C83.9499508,68.9958685 83.0174138,69.0073246 80.2894193,69.0408352 C80.2817784,69.0409292 80.2817784,69.0409292 80.2741375,69.0410231 C78.7323477,69.0599892 78.1453763,69.067223 77.5094209,69.0751063 C76.7449506,69.0845827 76.132907,69.7119905 76.1423834,70.4764608 C76.1518597,71.2409311 76.7792675,71.8529747 77.5437378,71.8434983 C78.1795636,71.8356166 78.7673036,71.8283733 80.3107781,71.8093866 C80.3183761,71.8092932 80.3183761,71.8092932 80.3259741,71.8091998 C83.0531662,71.7756989 83.9855778,71.7642441 84.035585,71.7635853 C86.0105738,71.7375318 87.8,70.1782212 87.8,68.1940501 L87.8,65.2032263 C87.8,63.8564039 87.0198189,62.6575791 85.494408,61.4803648 C84.8245545,60.9634148 84.103131,60.5196211 83.4864881,60.2200732 L69.7096798,52.9953491 C71.9857719,51.4496038 74.1831164,48.3027383 75.1954704,45.060058 L75.1954806,45.0600253 C75.6509002,43.5977444 75.9326915,41.6329377 76.064171,39.1133623 C76.1585277,37.3051822 76.1716824,35.5073493 76.1181637,32.9821247 L76.1179954,32.9821283 Z M22.8818477,32.9821249 L22.8818363,32.9821247 C22.8283176,35.5073493 22.8414723,37.3051822 22.935829,39.1133623 C23.0672988,41.6327517 23.3490638,43.5976287 23.8042471,45.0591519 C24.8168326,48.3025748 27.0141264,51.4495172 29.2843441,53.0802194 L15.4755209,60.2392556 C14.8948842,60.5204365 14.1711183,60.9667543 13.505592,61.4803648 C11.9801811,62.6575791 11.2,63.8564039 11.2,65.2032263 L11.2,68.1940501 C11.2,70.1782178 12.989423,71.7375318 14.9643915,71.763585 C15.014412,71.764244 15.9468246,71.7756988 18.6740144,71.8091996 C18.681612,71.809293 18.681612,71.809293 18.6892096,71.8093864 C20.2326914,71.8283732 20.8204364,71.8356166 21.4562622,71.8434983 C22.2207325,71.8529747 22.8481403,71.2409311 22.8576166,70.4764608 C22.867093,69.7119905 22.2550494,69.0845827 21.4905791,69.0751063 C20.8546236,69.067223 20.2676473,69.0599891 18.7258501,69.041023 C18.7182097,69.040929 18.7182097,69.040929 18.7105692,69.0408351 C15.982577,69.0073245 15.0500391,68.9958684 15.0008873,68.9952209 C14.531077,68.9890233 13.9686047,68.5588221 13.9686047,68.1940501 L13.9686047,65.2032263 C13.9686047,64.8551124 14.429955,64.2641947 15.1970875,63.6721711 C15.5191095,63.4236551 15.8804599,63.1834855 16.2616864,62.9619573 C16.4515151,62.8516492 16.6216722,62.7597392 16.7232425,62.7103993 L31.2697619,55.083512 L31.4289801,54.9856512 C31.5983906,54.8647144 31.7617056,54.7087694 31.9128133,54.5157959 C32.8102864,53.3696697 32.484541,51.9127929 31.0209354,50.9165286 C29.2124668,49.6855189 27.3003263,46.9672058 26.4473354,44.2349828 C26.0688847,43.019835 25.8191869,41.2402192 25.7006717,38.9690839 C25.6102671,37.2366373 25.5978174,35.4944474 25.6498194,33.0407883 C25.5497793,33.041644 25.5497793,33.041644 25.5497661,33.0424061 L25.6496637,33.0463957 C25.6497393,33.0447161 25.6497393,33.0447161 25.6497414,33.0446373 C25.6497523,33.0442314 25.6497523,33.0442314 25.6497615,33.0438551 C25.6497838,33.0429258 25.6497838,33.0429258 25.6498172,33.0414971 C25.650007,33.0332223 25.650007,33.0332223 25.6503679,33.0171876 C25.6513296,32.9742086 25.6513296,32.9742086 25.6528384,32.9062018 C25.6565372,32.7387446 25.6565372,32.7387446 25.6613093,32.5199897 C25.6694273,32.1463362 25.675148,31.8724097 25.6767602,31.7740291 C25.7061175,30.0838175 27.064723,27.4750659 28.7092566,25.9485834 L28.7092692,25.9485717 C31.6537169,23.2135901 34.0528156,22.0330907 37.0678434,22.0296577 C39.7131479,22.0327112 42.1063324,23.0896028 44.5938279,25.2315129 C45.1731757,25.7303724 46.0472354,25.6651238 46.546095,25.0857761 C47.0449545,24.5064283 46.9797059,23.6323686 46.4003581,23.133509 C43.3955295,20.5461384 40.4268525,19.2610465 37.0415386,19.2610465 C33.25407,19.2610465 30.314153,20.6791622 26.8253926,23.9197345 C24.6257606,25.9614682 22.9514467,29.2575306 22.9085502,31.7273071 C22.9069971,31.8220602 22.9013669,32.0913136 22.8933366,32.4607517 C22.8886067,32.6774898 22.8886067,32.6774898 22.8849206,32.8443887 C22.8834109,32.9124647 22.8834109,32.9124647 22.8824374,32.9560209 C22.8820685,32.9724471 22.8820685,32.9724471 22.8818683,32.9812193 C22.8818481,32.9820872 22.8818338,32.9826973 22.8818237,32.9831294 L22.8818477,32.9821249 Z"></path>
            </g>
        </g>
    </g>
</svg>