<?xml version="1.0" encoding="UTF-8"?>
<svg width="100px" height="100px" viewBox="0 0 100 100" version="1.1" xmlns="http://www.w3.org/2000/svg" xmlns:xlink="http://www.w3.org/1999/xlink">
    <!-- Generator: Sketch 43.2 (39069) - http://www.bohemiancoding.com/sketch -->
    <title>power</title>
    <desc>Created with Sketch.</desc>
    <defs></defs>
    <g id="Page-1" stroke="none" stroke-width="1" fill="none" fill-rule="evenodd">
        <g id="power" fill-rule="nonzero" fill="#000000">
            <path d="M82.355,27.4507089 L62.855,27.4507089 C62.8391606,25.7239003 62.1427908,24.0741627 60.9190997,22.8644573 C59.6954087,21.6547519 58.0446466,20.9841829 56.33,21.0002834 L43.28,21.0002834 C41.5653534,20.9841829 39.9145913,21.6547519 38.6909003,22.8644573 C37.4672092,24.0741627 36.7708394,25.7239003 36.755,27.4507089 L17.255,27.4507089 C16.3970846,27.4426622 15.5713463,27.779219 14.9604742,28.3859183 C14.3496022,28.9926176 14.0039533,29.8194466 14,30.6834749 L14,75.8817727 C14.0079196,76.7431738 14.3553143,77.5661215 14.9657533,78.1695577 C15.5761924,78.7729939 16.3996658,79.1074826 17.255,79.0994323 L82.355,79.0994323 C84.1127636,79.0830402 85.5337234,77.6520028 85.55,75.8817727 L85.55,30.6834749 C85.5418732,28.9073483 84.1185612,27.4672123 82.355,27.4507089 Z M43.22,24.2330493 L56.27,24.2330493 C57.1253342,24.224999 57.9488076,24.5594877 58.5592467,25.1629239 C59.1696857,25.7663601 59.5170804,26.5893078 59.525,27.4507089 L40.025,27.4507089 C40.0412766,25.6804789 41.4622364,24.2494414 43.22,24.2330493 L43.22,24.2330493 Z M23.72,66.1683685 C23.1123079,66.1089957 22.5237937,66.4019964 22.2016374,66.9243081 C21.8794811,67.4466198 21.8794811,68.1077768 22.2016374,68.6300885 C22.5237937,69.1524002 23.1123079,69.4454008 23.72,69.3860281 L23.72,75.8817727 L17.135,75.8817727 L17.135,30.6834749 L23.66,30.6834749 L23.72,66.1683685 Z M72.635,66.1683685 C72.0273079,66.1089957 71.4387937,66.4019964 71.1166374,66.9243081 C70.7944811,67.4466198 70.7944811,68.1077768 71.1166374,68.6300885 C71.4387937,69.1524002 72.0273079,69.4454008 72.635,69.3860281 L72.635,75.8817727 L26.915,75.8817727 L26.915,69.3860281 C27.5226921,69.4454008 28.1112063,69.1524002 28.4333626,68.6300885 C28.7555189,68.1077768 28.7555189,67.4466198 28.4333626,66.9243081 C28.1112063,66.4019964 27.5226921,66.1089957 26.915,66.1683685 L26.915,30.6834749 L72.56,30.6834749 L72.635,66.1683685 Z M82.355,75.8817727 L75.83,75.8817727 L75.83,69.3860281 C76.4376921,69.4454008 77.0262063,69.1524002 77.3483626,68.6300885 C77.6705189,68.1077768 77.6705189,67.4466198 77.3483626,66.9243081 C77.0262063,66.4019964 76.4376921,66.1089957 75.83,66.1683685 L75.83,30.6834749 L82.355,30.6834749 L82.355,75.8817727 Z M31.805,37.1339004 L41.585,37.1339004 C42.471417,37.1339004 43.19,36.4102211 43.19,35.5175174 C43.19,34.6248137 42.471417,33.9011344 41.585,33.9011344 L31.805,33.9011344 C30.918583,33.9011344 30.2,34.6248137 30.2,35.5175174 C30.2,36.4102211 30.918583,37.1339004 31.805,37.1339004 Z M31.805,43.5843259 C31.1973079,43.6436987 30.6087937,43.350698 30.2866374,42.8283863 C29.9644811,42.3060746 29.9644811,41.6449176 30.2866374,41.1226059 C30.6087937,40.6002942 31.1973079,40.3072936 31.805,40.3666663 L35.06,40.3666663 C35.6676921,40.3072936 36.2562063,40.6002942 36.5783626,41.1226059 C36.9005189,41.6449176 36.9005189,42.3060746 36.5783626,42.8283863 C36.2562063,43.350698 35.6676921,43.6436987 35.06,43.5843259 L31.805,43.5843259 Z M42.3138765,56.7635254 C41.6936735,56.7635254 41.3328963,56.0625159 41.6933534,55.5578155 C45.7676061,49.8531778 48.9757202,45.3610844 56.1552592,35.3079397 C56.3639502,35.0157201 56.7476093,34.9085592 57.0771222,35.0501681 L57.2125267,35.1083584 C57.5560263,35.2559781 57.7418324,35.630871 57.6512821,35.9936163 C56.6770373,39.8964534 55.7135497,43.7568886 54.3283536,49.3075198 L59.7217482,49.3075198 C59.9844757,49.3075198 60.2286988,49.4427704 60.3680969,49.6654674 C60.391915,49.7035959 60.391915,49.7035959 60.4149002,49.7405419 C60.4375161,49.7768933 60.4375161,49.7768933 60.4594856,49.8120623 C60.6233233,50.0738031 60.6131324,50.4085156 60.4336748,50.6598041 C58.2802148,53.6752215 56.0403645,56.8117113 53.2893265,60.6641018 C51.8828154,62.6336964 46.9972152,69.4752539 46.1449676,70.6686941 C45.9176979,70.98695 45.486505,71.0816822 45.146763,70.8879975 C45.1167553,70.8708903 45.0915882,70.8568177 45.0336157,70.8246108 C44.6989786,70.6387013 44.5540485,70.2334975 44.6948711,69.8775292 C47.2285058,63.4730636 48.4848514,60.2972523 49.8827179,56.7635254 L42.3138765,56.7635254 Z" id="Combined-Shape"></path>
        </g>
    </g>
</svg>