<?xml version="1.0" encoding="UTF-8"?>
<svg width="100px" height="100px" viewBox="0 0 100 100" version="1.1" xmlns="http://www.w3.org/2000/svg" xmlns:xlink="http://www.w3.org/1999/xlink">
    <!-- Generator: Sketch 43.2 (39069) - http://www.bohemiancoding.com/sketch -->
    <title>free</title>
    <desc>Created with Sketch.</desc>
    <defs>
        <path d="M59.0315722,64.2951723 L62.7987484,84.8812351 L50.37926,78.7114736 L37.9597717,84.8812351 L41.6432068,64.7527827 C41.6291498,64.7593636 41.6150445,64.7659662 41.6008906,64.7725906 C41.5125354,64.8139409 41.5125354,64.8139409 41.4242604,64.8552497 C41.1689838,64.9747162 41.1689838,64.9747162 40.9144239,65.0940356 C39.1288421,65.9315046 37.372894,64.9813409 37.1633613,63.0071249 C37.05267,61.9640458 36.9854444,61.1332789 36.8502726,59.2700999 C36.793307,58.4849062 36.7670018,58.1299559 36.7330402,57.6982303 C36.2773742,57.5804361 35.9890932,57.5614774 35.3407917,57.5194864 C33.3255775,57.3889187 32.3924174,57.3192324 31.2785428,57.2048239 C29.3009978,57.0021171 28.3788563,55.1892475 29.2363041,53.4072324 C30.0048469,51.8102028 30.7825947,50.2546371 31.5724016,48.7370388 C30.5515674,48.0820185 29.6305555,47.4787844 27.7694694,46.2522561 C27.5417237,46.1021632 27.5417237,46.1021632 27.3273007,45.9608831 C25.3981172,44.6900538 25.4182493,42.5658489 27.3438569,41.2868173 C27.6956638,41.0531988 27.9783263,40.8640109 28.6104205,40.4398308 C30.0451298,39.4770389 30.7891007,38.9842311 31.5795584,38.4836815 C31.3100548,37.9477798 31.0316766,37.4026817 30.5238224,36.4126184 C29.8879468,35.1729774 29.6078066,34.6232352 29.2627854,33.9325889 C28.3613435,32.1278428 29.2641291,30.2746018 31.2832784,30.0604339 C32.4358203,29.9380946 33.4754063,29.8562497 35.3420651,29.7294137 C35.49641,29.7189362 35.49641,29.7189362 35.6505783,29.7084904 C36.069406,29.6801114 36.2547383,29.6674863 36.4868979,29.6514194 C36.5808496,29.6449199 36.6615928,29.639082 36.7314377,29.6336923 C36.736667,29.5680377 36.7423052,29.4928832 36.7485221,29.4064274 C36.8405938,28.1240161 36.9195982,27.0982517 37.1008341,24.7972754 C37.1272877,24.4614208 37.1272877,24.4614208 37.1537062,24.1255921 C37.2711917,22.6336186 38.3231193,21.9333192 39.8705649,21.8967447 L40.1643525,21.8898009 L40.4344437,22.005603 C40.5795719,22.0678269 41.2976985,22.364307 41.1891612,22.3192072 C41.5543322,22.4709446 41.842765,22.5956374 42.1283661,22.7278065 C42.2243736,22.7722364 42.3178174,22.8165399 42.409083,22.86097 C43.3344861,23.3114847 44.0712276,23.6869077 45.6815698,24.5203404 C46.5464874,23.1781315 47.4361475,21.8172026 48.3543039,20.4310433 C49.7314804,18.3520992 51.8884255,18.3537633 53.2677773,20.4305965 C53.3377141,20.5358853 53.3377141,20.5358853 53.4076809,20.6412091 C54.6803128,22.5569365 55.2955351,23.4909485 55.9562031,24.5224535 C56.8088163,24.0990888 57.612767,23.7023925 59.1736871,22.9336602 C59.842179,22.6044363 60.1249111,22.4651507 60.4791898,22.2904554 C62.4380005,21.324303 64.1982514,22.1335093 64.4695913,24.3161639 C64.5964773,25.3375903 64.6646095,26.1766315 64.7824101,27.9508804 C64.8330767,28.714139 64.8546379,29.0283908 64.8840149,29.4185151 C64.8928997,29.5362724 64.8937549,29.5476067 64.9005065,29.6330694 C65.0208248,29.6419009 65.0214747,29.6419465 65.1600169,29.6516669 C65.4593549,29.6726684 65.699975,29.689021 66.2399913,29.7253239 C68.2461517,29.8602794 69.1864991,29.9335208 70.2872373,30.0515333 C72.306512,30.2679358 73.2705816,32.05641 72.3886274,33.8683893 C71.7158146,35.2507069 71.0236653,36.6281791 70.0654692,38.5024919 C70.5644736,38.8190607 71.0680483,39.1478812 71.9791269,39.7476285 C73.0792867,40.4718447 73.5682031,40.7897891 74.1814372,41.1741127 C76.128041,42.3940874 76.3405262,44.7342465 74.167605,46.0681694 C73.4653225,46.4993715 72.9044161,46.8628681 71.6528443,47.6885292 C70.8853312,48.1948573 70.4577022,48.4751846 70.0410879,48.7422132 C70.3668338,49.39263 70.6917848,50.0368931 71.3012119,51.2427101 C71.8029747,52.2355023 72.029179,52.6836953 72.3041195,53.2306677 C73.2735375,55.1597548 72.4026877,56.965414 70.2335257,57.2215779 C69.1975607,57.3438694 68.342238,57.4073331 66.5499391,57.5130926 C65.8235406,57.5559429 65.5300799,57.5738178 65.1654389,57.5981297 C65.0641423,57.6048755 64.9780558,57.6108692 64.9042887,57.6163719 C64.8989585,57.6796353 64.8931785,57.7517985 64.8867857,57.834502 C64.8581923,58.203857 64.8360218,58.5002387 64.7867105,59.1672119 C64.6435645,61.1032541 64.5718099,61.9852376 64.4610155,63.061272 C64.2628231,64.985961 62.4800676,65.9143677 60.7312515,65.0966769 C60.1106301,64.8066123 59.5498605,64.542392 59.0315722,64.2951723 Z M56.6108186,63.1076195 C56.3832751,62.9920296 56.1592425,62.8768874 55.9360143,62.7608147 C54.5901602,64.8396996 53.9156694,65.8644378 53.0863854,67.0714662 C51.8604015,68.8557694 49.7948765,68.8663603 48.5589093,67.0879881 C47.6514908,65.7822862 46.7364022,64.4029534 45.6855261,62.7680972 C45.2051773,63.0256708 44.7392108,63.2655696 44.2052235,63.5296826 L41.0487484,80.7785159 L50.37926,76.1432982 L59.7097717,80.7785159 L56.6108186,63.1076195 Z M39.7924976,25.0092837 C39.6117512,27.3040457 39.5330665,28.3256588 39.4415793,29.5999285 C39.2948038,31.64109 38.7240568,32.2031077 36.6732728,32.3449792 C36.439425,32.361163 36.2525856,32.3738907 35.8331024,32.4023139 C35.6790169,32.4127541 35.6790169,32.4127541 35.525103,32.4232023 C33.7536142,32.5435717 32.7477033,32.6221111 31.6818749,32.7333906 C32.0194783,33.4091097 32.2969618,33.9536094 32.9205624,35.1693204 C33.5514037,36.3991475 33.8322217,36.950226 34.1757499,37.6378185 C34.7213859,38.7292673 34.4885797,39.8468753 33.366954,40.5489822 C32.4581913,41.1176181 31.7368603,41.5933751 30.1180408,42.679718 C29.4792244,43.1084093 29.1941306,43.2992244 28.8376076,43.5359747 C28.7810169,43.5735635 28.7370288,43.6045112 28.7029386,43.6281679 C28.7345567,43.6526431 28.7710703,43.6787784 28.8126501,43.7061686 C29.0274233,43.8476794 29.0274233,43.8476794 29.2420675,43.989138 C31.2797086,45.3320229 32.183846,45.9234377 33.3162615,46.6476556 C34.4406236,47.3665829 34.7493039,48.487828 34.1241937,49.6831669 C33.3011595,51.2560581 32.4912269,52.8711912 31.6910055,54.5328416 C32.7037392,54.6347323 33.6142142,54.7019587 35.4204229,54.8189859 C36.1671588,54.8673532 36.4578102,54.8864678 36.8213877,54.9114612 C38.662244,55.0379205 39.2799889,55.6451142 39.4247314,57.4865734 C39.4592551,57.9254452 39.4858373,58.2841318 39.541979,59.0579705 C39.6715239,60.8435881 39.7371175,61.6606177 39.8372057,62.6170702 C40.0266497,62.5282742 40.0495508,62.5175567 40.2798644,62.4097727 C40.3681506,62.3684586 40.3681506,62.3684586 40.4563628,62.3271753 C42.4879488,61.3763321 43.4846012,60.8907241 44.6134044,60.2786979 C45.9288011,59.5654849 47.0478834,59.891385 47.8272275,61.1063946 C48.9168574,62.8052634 49.8525407,64.2182605 50.776049,65.5471146 C50.8854695,65.7045543 50.9022762,65.7153089 50.8154467,65.7157542 C50.7305802,65.7161893 50.750665,65.7031075 50.8610255,65.5424883 C51.6916948,64.3334437 52.3690286,63.3031013 53.767587,61.141994 L53.8460958,61.0206768 C54.592762,59.86725 55.7190117,59.5988892 56.943954,60.2411983 C58.3248331,60.9653323 59.7107385,61.6387093 61.7927775,62.6124553 C61.8905174,61.643693 61.960456,60.7751192 62.0904964,59.01633 C62.1436006,58.2980565 62.1659261,57.9996023 62.194828,57.626263 C62.3522181,55.5900982 62.9225587,55.0415113 64.9859258,54.9041039 C65.359623,54.8791881 65.6576696,54.8610339 66.3258096,54.8216206 C68.1313938,54.715078 68.950167,54.6543262 69.9169366,54.540203 C69.6179695,53.8986337 69.3923745,53.4516482 68.9056595,52.4886295 C68.1670278,51.0271674 67.8431142,50.3844169 67.442328,49.5822212 C66.8876985,48.4718096 67.2008763,47.3466321 68.2692485,46.6696938 C68.7948796,46.3365694 69.2156267,46.0617612 70.1587493,45.4395836 C71.4419932,44.5930284 72.0193561,44.2188671 72.7549491,43.7672124 C73.0932509,43.5595341 73.1047102,43.6857386 72.7476152,43.4619401 C72.1116654,43.0633803 71.6115067,42.7381249 70.4949851,42.003138 C69.3868925,41.2736998 68.8945947,40.9536114 68.2771669,40.5669323 C67.128131,39.8476384 66.9132926,38.7348905 67.4970178,37.5948116 C68.5240501,35.5885534 69.2451507,34.1563511 69.9399647,32.7298034 C68.9102429,32.620404 67.9957964,32.54954 66.1973508,32.4285537 C66.1281421,32.423899 66.1281421,32.423899 66.0588908,32.4192435 C65.5162546,32.3827645 65.2738821,32.3662927 64.9710503,32.3450461 C64.8299793,32.3351515 64.8299793,32.3351515 64.6964674,32.3253523 C62.9678851,32.1954523 62.3503104,31.5952398 62.2116661,29.8807434 C62.201674,29.7543229 62.201674,29.7543229 62.1916419,29.6213156 C62.1614608,29.2205113 62.139535,28.9009451 62.0919824,28.1845934 C61.9741846,26.4103795 61.9089764,25.6065995 61.7910484,24.6559584 C61.3184739,24.8870112 61.035278,25.0265253 60.3974269,25.3406589 C58.6204763,26.2157833 57.8239493,26.6090158 56.8464586,27.0950409 C55.7010865,27.6647218 54.5731067,27.374823 53.8713065,26.2740602 C53.1431363,25.1318418 52.5407295,24.2156321 51.1922887,22.1857875 C51.0887058,22.0298603 51.0887058,22.0298603 51.0186693,21.9244216 C50.9425728,21.8098461 50.8720395,21.7205381 50.8107083,21.6555882 C50.7500987,21.7200907 50.6804214,21.8086207 50.6052548,21.9220899 C49.6251155,23.401826 48.6779187,24.8522347 47.7591094,26.2812171 C47.0601548,27.3684088 45.9138786,27.6804471 44.764918,27.0861021 C44.6474265,27.0253066 44.6474265,27.0253066 44.5300406,26.9645487 C42.8610388,26.1006646 42.1333236,25.7296805 41.227258,25.2885799 C41.1523124,25.2520947 41.074784,25.215337 40.994411,25.1781424 C40.7467179,25.0635162 40.4881965,24.9517543 40.1531275,24.8125251 C40.2232056,24.8416443 40.0330002,24.7632026 39.8188697,24.674412 C39.8122857,24.7580548 39.8056711,24.8420332 39.7924976,25.0092837 Z" id="path-1"></path>
    </defs>
    <g id="Page-1" stroke="none" stroke-width="1" fill="none" fill-rule="evenodd">
        <g id="free">
            <g id="Combined-Shape">
                <use fill="#000000" fill-rule="evenodd" xlink:href="#path-1"></use>
                <path stroke="#000000" stroke-width="0.2" d="M59.1651444,64.4695559 C59.6217527,64.6867271 60.1220628,64.9223387 60.6889101,65.1872705 C62.5140057,66.0406271 64.3567717,65.0498622 64.5604895,63.0715153 C64.6671249,62.0358732 64.7366871,61.1999627 64.8864383,59.1745855 C64.9380746,58.4761653 64.9590424,58.1967409 64.9864874,57.8422203 C64.9920445,57.7711114 64.9942676,57.7426633 64.9969245,57.7099212 C65.0431201,57.7066136 65.0746501,57.7044853 65.1720836,57.6979087 C65.5248495,57.6743885 65.8032806,57.6573119 66.5558279,57.612919 C68.439221,57.5017843 69.2499609,57.4383781 70.2452489,57.3208883 C72.460407,57.0592927 73.404792,55.198236 72.3934717,53.1857658 C72.1288736,52.6593688 71.9145858,52.2346414 71.3904608,51.1976032 C70.7689896,49.9679557 70.4660221,49.3670189 70.1707664,48.7778083 C70.5416188,48.5394664 70.938357,48.2796762 71.7079111,47.7720017 C73.0166285,46.9086416 73.5462327,46.5670381 74.2199292,46.1533878 C76.3847071,44.8244639 76.3179969,42.3951205 74.2345419,41.0893784 C73.6461429,40.7206194 73.18489,40.4216395 72.0341112,39.6641017 C71.1109886,39.056426 70.6432769,38.7515222 70.1959574,38.4669184 C71.1646698,36.5713266 71.8347279,35.2348929 72.4785424,33.9121534 C73.3940067,32.0313274 72.3788776,30.1751185 70.2978932,29.9521027 C69.2337086,29.8380091 68.3348203,29.7660182 66.2467031,29.6255495 C65.681225,29.5875348 65.4543264,29.5720698 65.1670157,29.5519121 C65.0770571,29.5456004 65.0770571,29.5456004 65.0259052,29.5419556 C65.0248114,29.541877 65.0248114,29.541877 65.0237179,29.5417984 C65.0108727,29.5408686 65.0016965,29.5402043 64.9934886,29.5396085 C64.991226,29.5103229 64.9889326,29.4799266 64.9837314,29.4109915 C64.9553595,29.0342144 64.9347809,28.7364952 64.8821905,27.9442568 C64.7584083,26.0799151 64.6907333,25.2851639 64.5688285,24.3038362 C64.2926404,22.0821831 62.4835328,21.1903424 60.4349545,22.2007712 C60.0933078,22.3692377 59.8257129,22.5010762 59.1295057,22.8439495 C57.5282679,23.6325378 56.7733817,24.0051795 55.9920279,24.3930222 C55.3794998,23.4378246 54.8003116,22.5568529 53.4909765,20.5858752 C53.4472418,20.5200397 53.4472418,20.5200397 53.4210063,20.4805449 L53.4210037,20.4805411 C53.3947785,20.4410607 53.3947785,20.4410607 53.3510756,20.3752666 C51.9317298,18.2382163 49.6872259,18.2378298 48.2709366,20.3758175 C47.3654056,21.7429159 46.4922131,23.0784933 45.6467779,24.3897401 C44.0188039,23.5474076 43.3284214,23.1973115 42.4528546,22.7710587 C42.3616912,22.7266783 42.267717,22.6821057 42.1703644,22.6370533 C41.8940737,22.5091928 41.6098251,22.3857137 41.2275328,22.2268621 L41.2274981,22.2269457 C41.2123329,22.2207084 41.209586,22.2195751 41.1755884,22.2055481 C41.0792573,22.1657598 41.0792573,22.1657598 40.945196,22.1102638 C40.7135671,22.014318 40.5365918,21.9405953 40.4738496,21.9136945 L40.2037584,21.7978924 L39.868202,21.7967726 C38.1953468,21.8363112 37.1709728,22.6324672 37.0540148,24.1177419 C37.0375114,24.3275308 37.0375114,24.3275308 37.0276048,24.4534097 C37.0275987,24.4534884 37.0275987,24.4534884 37.0275925,24.453567 C37.0176768,24.5795081 37.0176768,24.5795081 37.0011429,24.7894232 C36.8112241,27.2006386 36.7371751,28.1680474 36.6487788,29.3992663 C36.6432061,29.4757605 36.6410788,29.5049606 36.6383732,29.5403941 C36.5975853,29.5434127 36.5670879,29.5455511 36.4799965,29.5516578 C36.2570786,29.5670852 36.0822882,29.5790092 35.643818,29.6087192 C35.5475791,29.6152399 35.5475791,29.6152399 35.4897967,29.6191575 C35.4897422,29.6191612 35.4897422,29.6191612 35.4896877,29.6191649 C35.4318027,29.6230919 35.4318027,29.6230919 35.3352924,29.6296433 C33.3776717,29.76266 32.380269,29.8434295 31.272723,29.9609926 C29.205649,30.1802438 28.230613,32.0899033 29.1733243,33.9772733 C29.504879,34.6409632 29.7688957,35.1599887 30.4348454,36.4582593 C30.9483763,37.4593895 31.2070673,37.9663624 31.4495149,38.4477309 C30.7269414,38.9065161 30.0303133,39.3665519 28.5546975,40.3567949 C27.8928514,40.8009407 27.6261944,40.9792898 27.2885377,41.203512 C25.2991907,42.5248807 25.2872538,44.7367709 27.2722898,46.0443924 C27.4030281,46.1305338 27.4030281,46.1305338 27.4833533,46.1834629 L27.4833724,46.1834755 C27.5686954,46.239702 27.5686954,46.239702 27.7144412,46.335754 C29.6335869,47.6005458 30.4996561,48.1669614 31.4415664,48.7718819 C30.6691594,50.2581724 29.904907,51.7872682 29.1461952,53.3638691 C28.2507117,55.2249329 29.2394991,57.0963372 31.2683458,57.3043026 C32.3427682,57.4146589 33.2310677,57.483005 35.3343261,57.6192772 C36.0710643,57.6669963 36.2877402,57.6901498 36.6389535,57.7775131 C36.6690168,58.1617159 36.6944803,58.5047007 36.7505347,59.2773359 C36.8923644,61.2322846 36.9575968,62.0157637 37.0639196,63.0176776 C37.2797284,65.0510265 39.1005803,66.0552124 40.9568871,65.1845722 C41.1157838,65.1100928 41.1157838,65.1100928 41.2112189,65.0653832 C41.2112944,65.0653478 41.2112944,65.0653478 41.2113699,65.0653125 C41.3070234,65.0205242 41.3070234,65.0205242 41.4666472,64.9458221 C41.4936924,64.9331661 41.5074743,64.9267168 41.5184018,64.9216032 L37.8614051,84.8632344 L38.0042622,84.9707929 L50.4237506,78.8010313 L62.7542579,84.9707929 L62.8971149,84.8632344 L59.1651444,64.4695559 L59.1651444,64.4695559 Z M56.5209538,63.174115 L59.5771058,80.6009503 L50.4237506,76.0537405 L41.182883,80.6010589 L44.30359,63.5476833 C44.7544675,63.367064 45.1959734,63.1427666 45.6513285,62.8998006 C46.7074474,64.5413867 47.6030748,65.8878476 48.4767923,67.1450566 C49.751988,68.9798725 51.9025376,68.9710286 53.1688052,67.1280964 C53.9586379,65.9784897 54.5999867,65.0080553 55.9705723,62.8914361 C56.1529758,62.9860158 56.3359509,63.0799932 56.5209538,63.174115 L56.5209538,63.174115 Z M39.9077571,24.8194755 C39.9552926,24.8391586 39.9827473,24.850503 40.0544116,24.8801153 C40.0991787,24.8985913 40.0991787,24.8985913 40.1226126,24.9082294 C40.1265474,24.9098428 40.1265474,24.9098428 40.1290525,24.910863 C40.1300433,24.9112658 40.1300433,24.9112658 40.1317877,24.9119524 L40.1318107,24.9119607 C40.4692242,25.0523169 40.7178587,25.1603498 40.9524126,25.2688956 C41.0326432,25.3060243 41.1095432,25.342494 41.183487,25.3784915 C42.0553091,25.8029213 42.7437514,26.1525578 44.4840728,27.0533572 C44.5574141,27.0913181 44.5574141,27.0913181 44.6014384,27.1141025 L44.6014507,27.1141089 C44.6455104,27.1369096 44.6455104,27.1369096 44.7189613,27.1749165 C45.9120604,27.7920938 47.1153308,27.4675023 47.8432257,26.3352953 C48.756913,24.9142789 49.7034246,23.4646883 50.6886246,21.9773119 C50.7306922,21.913808 50.77176,21.8572102 50.8108937,21.8083473 C50.8507093,21.8578189 50.8925236,21.9152378 50.9353681,21.979747 C50.9720509,22.0349724 50.9720509,22.0349724 50.997335,22.0730362 L50.9973379,22.0730407 C51.034732,22.1293335 51.034732,22.1293335 51.1089929,22.2411211 C52.5207919,24.3663406 53.0881519,25.2316181 53.786984,26.3278162 C54.5104566,27.4625719 55.690002,27.7819213 56.8909919,27.1845774 C57.8306891,26.7173439 58.5838734,26.3452792 60.4416083,25.4303696 C61.0169139,25.1470388 61.1625806,25.0753499 61.3874909,24.9649693 C61.3900367,24.9637199 61.3900367,24.9637199 61.3925825,24.9624705 C61.5554762,24.8825811 61.5919288,24.8647033 61.7088384,24.8075019 C61.8119165,25.6629251 61.8758105,26.4381846 61.992202,28.1912182 C62.0420732,28.9424974 62.0629392,29.2439044 62.0919242,29.6288245 C62.0982064,29.7121154 62.0982064,29.7121154 62.1019806,29.7613899 C62.1020688,29.7625318 62.1020688,29.7625318 62.102157,29.7636734 C62.1058582,29.8112071 62.1058582,29.8112071 62.111977,29.8886227 C62.2543679,31.6494524 62.908304,32.2912569 64.6889737,32.4250711 C64.7707582,32.4310739 64.7707582,32.4310739 64.8209282,32.4347032 C64.8220988,32.4347873 64.8220988,32.4347873 64.8232698,32.4348713 C64.8755277,32.4385919 64.8755277,32.4385919 64.9640536,32.4448011 C65.2548151,32.4652008 65.483429,32.4807834 66.0521834,32.5190183 C66.0954678,32.5219281 66.0954678,32.5219281 66.1214316,32.5236738 L66.1214437,32.5236746 C66.1473956,32.5254198 66.1473956,32.5254198 66.1906403,32.5283283 C67.9843021,32.6489928 68.8570511,32.7176364 69.7875016,32.8143306 C69.1350681,34.1511857 68.4418862,35.5296033 67.4080034,37.5492438 C66.7821644,38.7715754 67.06309,39.9249005 68.2241062,40.6516941 C68.8165238,41.0227099 69.2809732,41.323697 70.4400008,42.0866649 C71.611405,42.85778 72.0836812,43.1638579 72.6945108,43.5466745 C72.8783217,43.6618724 72.9106899,43.6787628 72.9120825,43.6183181 C72.9134663,43.5582517 72.8694622,43.5795751 72.7026321,43.6819895 C71.9956659,44.1160674 71.4497195,44.4681313 70.1036826,45.3561111 C69.1170326,46.0070036 68.7200495,46.2656024 68.2157176,46.5852282 C67.1069144,47.2877842 66.7737917,48.467552 67.3528667,49.6269054 C67.7382985,50.3983684 68.0440654,51.0055685 68.8164106,52.5337364 C69.3628415,53.6149094 69.5364652,53.9639126 69.767621,54.4568963 C68.8952972,54.5567918 68.105143,54.6164531 66.3199191,54.7217943 C65.6192593,54.7631259 65.33815,54.7803978 64.9792732,54.8043255 C62.8631647,54.9452451 62.2561073,55.535924 62.0951254,57.6185562 C62.067208,57.9791782 62.0460001,58.2619105 61.9907686,59.0089568 C61.8607773,60.7670807 61.7936103,61.5918609 61.7073235,62.4620601 C59.6182717,61.4839431 58.2960334,60.837314 56.9903957,60.1526366 C55.7130542,59.4828516 54.532978,59.7755833 53.7621498,60.9663347 L53.6836329,61.0876642 C52.2429063,63.3139315 51.5964415,64.2942372 50.8167161,65.4303585 C49.9288111,64.1508267 49.0118132,62.7680851 47.9114016,61.0524065 C47.0931594,59.7767539 45.9102189,59.4618068 44.5657396,60.1907885 C43.4831063,60.7777818 42.537883,61.2425507 40.4139729,62.2366044 C40.3588612,62.2623967 40.3588612,62.2623967 40.325783,62.2778767 L40.3257799,62.2778782 C40.2926751,62.2933703 40.2926751,62.2933703 40.23748,62.3191992 C40.0778658,62.3938967 40.0778658,62.3938967 39.981988,62.4387899 C39.9819122,62.4388255 39.9819122,62.4388255 39.9818363,62.438861 C39.9553899,62.45125 39.9380236,62.4593853 39.9221659,62.4668151 C39.8342129,61.6098774 39.7707065,60.8286991 39.6417169,59.0507346 C39.5828516,58.2393553 39.5575698,57.9000938 39.5244234,57.4787311 C39.3759259,55.5895001 38.7201966,54.9416659 36.8282411,54.8116963 C36.4750704,54.7874183 36.1983038,54.769161 35.4268865,54.719195 C33.6220903,54.6022593 32.7561093,54.5373157 31.8431657,54.44749 C32.6262663,52.8247653 33.4151323,51.2539369 34.2127967,49.7295296 C34.8595262,48.4928502 34.5426155,47.3131027 33.3701316,46.5634059 C32.2826114,45.8679 31.4291708,45.3107607 29.2970958,43.9056402 C29.1629749,43.8172495 29.1629749,43.8172495 29.0824793,43.764204 L29.0824607,43.7641917 C29.0040055,43.7124948 29.0019768,43.711158 28.8778184,43.6293519 C28.8827593,43.6260456 28.8877808,43.6226982 28.8929365,43.6192736 C29.2354019,43.3918583 29.5045235,43.2118616 30.1737638,42.7627539 C31.8672354,41.626314 32.5480544,41.1793517 33.4199981,40.6337544 C34.5526113,39.9247696 34.8519785,38.766859 34.2651955,37.593103 C33.9350877,36.9323722 33.6702132,36.411665 33.0095394,35.1236795 C32.4003157,33.9359962 32.1321431,33.4094997 31.8359994,32.8179994 C32.805819,32.7188786 33.7628771,32.6431729 35.5318822,32.5229723 C35.6280284,32.5164455 35.6280284,32.5164455 35.6857404,32.5125303 C35.6857948,32.5125266 35.6857948,32.5125266 35.6858492,32.5125229 C35.7435893,32.5086082 35.7435893,32.5086082 35.8398625,32.5020851 C36.2793428,32.472307 36.4556152,32.4602817 36.680177,32.4447406 C38.7822683,32.2993197 39.3910898,31.6963301 39.5413218,29.6071007 C39.6291403,28.3839304 39.7028811,27.4205931 39.8921889,25.0171358 L39.8921889,25.0171358 C39.9003553,24.9134544 39.9044752,24.8611486 39.9077571,24.8194755 Z"></path>
            </g>
        </g>
    </g>
</svg>