<?xml version="1.0" encoding="UTF-8"?>
<svg width="100px" height="100px" viewBox="0 0 100 100" version="1.1" xmlns="http://www.w3.org/2000/svg" xmlns:xlink="http://www.w3.org/1999/xlink">
    <!-- Generator: Sketch 43.2 (39069) - http://www.bohemiancoding.com/sketch -->
    <title>basic</title>
    <desc>Created with Sketch.</desc>
    <defs></defs>
    <g id="Page-1" stroke="none" stroke-width="1" fill="none" fill-rule="evenodd">
        <g id="basic" fill-rule="nonzero" fill="#000000">
            <path d="M50.325,20 C34.1292497,20 21,33.222365 21,49.5329787 C21,65.8435925 34.1292497,79.0659574 50.325,79.0659574 C66.5207503,79.0659574 79.65,65.8435925 79.65,49.5329787 C79.65,33.222365 66.5207503,20 50.325,20 L50.325,20 Z M50.325,76.3770213 C44.2959116,76.3841227 38.4443719,74.3220915 33.735,70.5308511 C36.0202429,67.7745214 38.9991801,65.68752 42.36,64.4882979 C44.28,63.8538298 45.36,62.9021277 45.675,61.6482979 C45.8425709,60.5850115 45.4710094,59.5077786 44.685,58.7780851 C44.3322993,58.454657 43.8375373,58.3401119 43.38,58.4759574 C41.3758487,58.8236855 39.3138364,58.4775794 37.53,57.4940426 C38.61,55.6208511 39.525,51.7687234 39.525,44.0795745 C39.525,31.7678723 44.97,30.7406383 51.015,30.7406383 C55.23,30.7406383 60.84,32.2512766 60.84,44.7442553 C60.84,51.8895745 61.95,55.4546809 63.06,57.237234 C60.9866033,58.0591996 58.7585665,58.4099606 56.535,58.2644681 C55.9635384,58.2064009 55.4215623,58.5314397 55.2,59.0651064 C54.705,60.2131915 54.66,62.796383 58.125,64.3523404 C61.4504871,65.726993 64.3985305,67.8876436 66.72,70.6517021 C62.0471427,74.357712 56.2728848,76.374148 50.325,76.3770213 L50.325,76.3770213 Z M68.775,68.8238298 C66.202046,65.7577939 62.9354007,63.3590798 59.25,61.8295745 C58.7483854,61.6303702 58.2973726,61.3206805 57.93,60.9231915 C60.7582347,60.8345381 63.5288739,60.0956282 66.03,58.7629787 C66.4691646,58.5099773 66.7285794,58.0286962 66.699987,57.5199807 C66.6713945,57.0112651 66.3597086,56.5625398 65.895,56.3610638 C65.7,56.2251064 63.54,54.4576596 63.54,44.6687234 C63.54,33.5957447 59.34,27.9761702 51.045,27.9761702 C44.04,27.9761702 36.885,29.8795745 36.885,44.0040426 C36.885,54.2612766 35.19,56.2402128 34.92,56.4819149 C34.4123231,56.6373741 34.044263,57.0808727 33.9824527,57.6116243 C33.9206425,58.142376 34.1768179,58.6596066 34.635,58.9291489 C37.1022413,60.514266 39.9904875,61.3046818 42.915,61.1951064 C42.5052331,61.5006104 42.0422402,61.7260627 41.55,61.8597872 C37.7327706,63.2034996 34.3480166,65.5630084 31.755,68.6878723 C23.9495383,61.0604544 21.5248953,49.4238743 25.6274484,39.279937 C29.7300015,29.1359997 39.5377988,22.5170564 50.4136885,22.5525605 C61.2895783,22.5880647 71.0545616,29.2709029 75.0917294,39.4414121 C79.1288971,49.6119214 76.6293974,61.2324267 68.775,68.8087234 L68.775,68.8238298 Z" id="Shape"></path>
        </g>
    </g>
</svg>