<?xml version="1.0" encoding="UTF-8"?>
<svg width="100px" height="100px" viewBox="0 0 100 100" version="1.1" xmlns="http://www.w3.org/2000/svg" xmlns:xlink="http://www.w3.org/1999/xlink">
    <!-- Generator: Sketch 43.2 (39069) - http://www.bohemiancoding.com/sketch -->
    <title>business</title>
    <desc>Created with Sketch.</desc>
    <defs>
        <path d="M79.4517887,85.45 L79.4517887,19.5 L49.6162791,19.5 L49.6162791,85.45 L55,85.45 L55,64 L74.4418605,64 L74.4418605,85.45 L79.4517887,85.45 Z M16.3023256,85.45 L16.3023256,33.975 L48.1162791,33.975 L48.1162791,18 L80.9517887,18 L80.9517887,85.45 L87,85.45 L87,89 L11,89 L11,85.45 L16.3023256,85.45 Z M17.8023256,85.45 L47.6378352,85.45 L47.6378352,35.475 L17.8023256,35.475 L17.8023256,85.45 Z M56.5,85.45 L72.9418605,85.45 L72.9418605,65.5 L56.5,65.5 L56.5,85.45 Z M31.7616279,62.5 L24.5,62.5 L24.5,73.7 L31.7616279,73.7 L31.7616279,62.5 Z M33.2616279,62.5 L33.2616279,73.7 L40.9418605,73.7 L40.9418605,62.5 L33.2616279,62.5 Z M31.7616279,43.5 L24.5,43.5 L24.5,54.7 L31.7616279,54.7 L31.7616279,43.5 Z M33.2616279,43.5 L33.2616279,54.7 L40.9418605,54.7 L40.9418605,43.5 L33.2616279,43.5 Z M55.1860465,26.875 L74.627907,26.875 L74.627907,41.075 L55.1860465,41.075 L55.1860465,26.875 Z M56.6860465,39.575 L73.127907,39.575 L73.127907,28.375 L56.6860465,28.375 L56.6860465,39.575 Z M55,44.625 L74.4418605,44.625 L74.4418605,58.825 L55,58.825 L55,44.625 Z M56.5,57.325 L72.9418605,57.325 L72.9418605,46.125 L56.5,46.125 L56.5,57.325 Z M23,42 L42.4418605,42 L42.4418605,56.2 L23,56.2 L23,42 Z M23,61 L42.4418605,61 L42.4418605,75.2 L23,75.2 L23,61 Z" id="path-1"></path>
    </defs>
    <g id="Page-1" stroke="none" stroke-width="1" fill="none" fill-rule="evenodd">
        <g id="business">
            <g id="Combined-Shape">
                <use fill="#000000" fill-rule="evenodd" xlink:href="#path-1"></use>
                <path stroke="#000000" stroke-width="0.6" d="M79.1517887,85.15 L74.7418605,85.15 L74.7418605,64 L74.7418605,63.7 L74.4418605,63.7 L55,63.7 L54.7,63.7 L54.7,64 L54.7,85.15 L49.9162791,85.15 L49.9162791,19.8 L79.1517887,19.8 L79.1517887,85.15 Z M16.0023256,85.15 L11,85.15 L10.7,85.15 L10.7,85.45 L10.7,89 L10.7,89.3 L11,89.3 L87,89.3 L87.3,89.3 L87.3,89 L87.3,85.45 L87.3,85.15 L87,85.15 L81.2517887,85.15 L81.2517887,18 L81.2517887,17.7 L80.9517887,17.7 L48.1162791,17.7 L47.8162791,17.7 L47.8162791,18 L47.8162791,33.675 L16.3023256,33.675 L16.0023256,33.675 L16.0023256,33.975 L16.0023256,85.15 Z M18.1023256,85.15 L18.1023256,35.775 L47.3378352,35.775 L47.3378352,85.15 L18.1023256,85.15 Z M56.8,85.15 L56.8,65.8 L72.6418605,65.8 L72.6418605,85.15 L56.8,85.15 Z M31.4616279,62.8 L31.4616279,73.4 L24.8,73.4 L24.8,62.8 L31.4616279,62.8 Z M33.5616279,62.8 L40.6418605,62.8 L40.6418605,73.4 L33.5616279,73.4 L33.5616279,62.8 Z M31.4616279,43.8 L31.4616279,54.4 L24.8,54.4 L24.8,43.8 L31.4616279,43.8 Z M33.5616279,43.8 L40.6418605,43.8 L40.6418605,54.4 L33.5616279,54.4 L33.5616279,43.8 Z M55.1860465,26.575 L54.8860465,26.575 L54.8860465,26.875 L54.8860465,41.075 L54.8860465,41.375 L55.1860465,41.375 L74.627907,41.375 L74.927907,41.375 L74.927907,41.075 L74.927907,26.875 L74.927907,26.575 L74.627907,26.575 L55.1860465,26.575 Z M56.9860465,39.275 L56.9860465,28.675 L72.827907,28.675 L72.827907,39.275 L56.9860465,39.275 Z M55,44.325 L54.7,44.325 L54.7,44.625 L54.7,58.825 L54.7,59.125 L55,59.125 L74.4418605,59.125 L74.7418605,59.125 L74.7418605,58.825 L74.7418605,44.625 L74.7418605,44.325 L74.4418605,44.325 L55,44.325 Z M56.8,57.025 L56.8,46.425 L72.6418605,46.425 L72.6418605,57.025 L56.8,57.025 Z M23,41.7 L22.7,41.7 L22.7,42 L22.7,56.2 L22.7,56.5 L23,56.5 L42.4418605,56.5 L42.7418605,56.5 L42.7418605,56.2 L42.7418605,42 L42.7418605,41.7 L42.4418605,41.7 L23,41.7 Z M23,60.7 L22.7,60.7 L22.7,61 L22.7,75.2 L22.7,75.5 L23,75.5 L42.4418605,75.5 L42.7418605,75.5 L42.7418605,75.2 L42.7418605,61 L42.7418605,60.7 L42.4418605,60.7 L23,60.7 Z"></path>
            </g>
        </g>
    </g>
</svg>