<svg xmlns="http://www.w3.org/2000/svg" viewBox="0 0 12.9 20"><defs><style>.cls-1{fill:#fff;}</style></defs><title>Asset 5</title><g id="Layer_2" data-name="Layer 2"><g id="Layer_1-2" data-name="Layer 1"><path class="cls-1" d="M6.45,9.36A2.15,2.15,0,1,0,4.3,7.22,2.15,2.15,0,0,0,6.45,9.36Zm0-3.4A1.25,1.25,0,1,1,5.2,7.22,1.25,1.25,0,0,1,6.45,6Z"/><path class="cls-1" d="M10.44,9A12.1,12.1,0,0,0,6.9.23.69.69,0,0,0,6.45,0,.69.69,0,0,0,6,.23,12.09,12.09,0,0,0,2.45,9C1.84,9.57,0,11.57,0,16.6a.45.45,0,0,0,.76.32c.63-.62,2.55-2.24,3.79-2.24h3.8c1.24,0,3.15,1.62,3.79,2.24a.45.45,0,0,0,.76-.32C12.9,11.57,11.06,9.57,10.44,9Zm-4-8A9.51,9.51,0,0,1,7.74,2.68H5.16A9.64,9.64,0,0,1,6.45,1ZM4.66,3.57H8.25A12.41,12.41,0,0,1,9.56,9.26c0,2.12-.48,3.68-1.38,4.52H4.72c-.9-.84-1.38-2.39-1.38-4.52A12.39,12.39,0,0,1,4.66,3.57ZM2.49,10.33a6.7,6.7,0,0,0,1.17,3.6A8.86,8.86,0,0,0,.92,15.57,9.61,9.61,0,0,1,2.49,10.33Zm6.74,3.6a6.71,6.71,0,0,0,1.17-3.61A9.51,9.51,0,0,1,12,15.57,8.87,8.87,0,0,0,9.24,13.93Z"/><path class="cls-1" d="M6.45,15.83a.45.45,0,0,0-.45.45v3.27a.45.45,0,0,0,.89,0V16.28A.45.45,0,0,0,6.45,15.83Z"/><path class="cls-1" d="M8.24,15.83a.45.45,0,0,0-.45.45v2.14a.45.45,0,0,0,.89,0V16.28A.45.45,0,0,0,8.24,15.83Z"/><path class="cls-1" d="M4.66,15.83a.45.45,0,0,0-.45.45v2.14a.45.45,0,0,0,.89,0V16.28A.45.45,0,0,0,4.66,15.83Z"/></g></g></svg>