<?xml version="1.0" encoding="UTF-8"?>
<svg width="51px" height="66px" viewBox="0 0 51 66" version="1.1" xmlns="http://www.w3.org/2000/svg" xmlns:xlink="http://www.w3.org/1999/xlink">
    <!-- Generator: Sketch 41.2 (35397) - http://www.bohemiancoding.com/sketch -->
    <title>Group 39</title>
    <desc>Created with Sketch.</desc>
    <defs></defs>
    <g id="Web" stroke="none" stroke-width="1" fill="none" fill-rule="evenodd">
        <g id="SPACES---View" transform="translate(-328.000000, -584.000000)" stroke="#000000">
            <g id="Group-4" transform="translate(0.000000, 472.000000)">
                <g id="Group-39" transform="translate(330.000000, 114.000000)">
                    <path d="M12.662432,3.02395896 C13.1702013,3.2416659 13.8890834,3.51691857 14.5781428,3.85236816 C15.777169,4.43609097 16.9606561,5.05178365 18.1452419,5.66466922 C18.6737301,5.93805049 19.0601685,5.83169223 19.3835084,5.32875178 C20.3252753,3.86406444 21.2780295,2.40608298 22.2397305,0.954183583 C23.0832397,-0.319152461 24.0581254,-0.317281055 24.9032042,0.955119286 C25.8672596,2.40655083 26.8331985,3.85704667 27.7696287,5.32594467 C28.1019155,5.84713133 28.4816045,5.92432684 29.0052269,5.66388946 C30.6132939,4.86433112 32.2255988,4.07303815 33.8363342,3.27878212 C34.9796392,2.71486502 35.7363489,3.02536252 35.8898569,4.26017878 C36.0973595,5.93056486 36.1712882,7.6174817 36.2977989,9.29753672 C36.4017072,10.6766072 36.4073578,10.6764513 37.8255018,10.7759477 C39.5192695,10.894782 41.2160196,10.9905356 42.9033519,11.1714382 C43.9932902,11.2882452 44.4068828,12.0851524 43.9347437,13.0551646 C43.1296899,14.7091759 42.297011,16.3499314 41.4586815,17.9875679 C41.1973412,18.4979939 41.206131,18.8576159 41.7534546,19.2002392 C43.2582411,20.1426482 44.7200203,21.1527397 46.2244929,22.0956166 C47.2494492,22.7379768 47.5902119,23.8548945 46.2211967,24.6953119 C44.70919,25.6236854 43.250707,26.6376757 41.7518849,27.5875703 C41.2583991,27.9002511 41.1701869,28.2764038 41.4100236,28.7565755 C42.220414,30.3786169 43.0435182,31.9944203 43.8578327,33.6144344 C44.4106499,34.7145094 44.0620392,35.5135999 42.8352308,35.6584779 C41.1772502,35.8541958 39.5034165,35.9175117 37.8357043,36.0287045 C36.4352969,36.1219629 36.4059451,36.1473828 36.3007812,37.5078952 C36.1667363,39.2394139 36.0559218,40.9734278 35.8780848,42.7005799 C35.7773157,43.6791694 34.9890568,44.0843289 34.0628291,43.6512543 C32.3867979,42.8679148 30.7143769,42.0730349 29.0769582,41.2143713 C28.4577464,40.8896823 28.0989332,40.9763908 27.7393352,41.5318866 C26.7514218,43.0584863 25.7633513,44.5858658 24.7336862,46.0845503 C24.0418014,47.0915229 23.1240496,47.097449 22.427456,46.0951549 C21.4039124,44.6223582 20.4189811,43.1222701 19.4508448,41.6128249 C19.0625229,41.007425 18.7223881,40.8605196 18.0168477,41.2430662 C16.4147452,42.1117107 14.7531545,42.8744647 13.1011384,43.6493828 C12.1518374,44.0946216 11.3769202,43.6893062 11.2657917,42.6422544 C11.0797927,40.8895264 10.9771401,39.1279093 10.8388573,37.3700349 C10.7464072,36.1938561 10.6602356,36.1163486 9.4888345,36.0358782 C7.71705704,35.9140808 5.94198339,35.8208224 4.17617045,35.6394519 C3.15074326,35.5343413 2.75253282,34.7266735 3.21274292,33.7702289 C4.0107334,32.112007 4.83477944,30.4654813 5.68802025,28.8348626 C5.98985654,28.2576897 5.8809255,27.9027464 5.34898417,27.5626183 C3.83321034,26.5932298 2.33234783,25.6009166 0.829915699,24.6110986 C-0.285607194,23.8762597 -0.274462952,22.9363459 0.850634571,22.189031 C2.36750712,21.1817465 3.86758483,20.1477946 5.41082686,19.1821489 C5.9492036,18.8451398 5.95265675,18.4680514 5.72820231,18.0190699 C4.90729549,16.3759751 4.05138634,14.7501909 3.23047953,13.1069402 C2.73997593,12.1249198 3.12861174,11.2926118 4.18574508,11.1804834 C5.89881908,10.9986451 7.62068289,10.894782 9.34003533,10.7757918 C10.7219213,10.6801941 10.7566097,10.6493159 10.8550243,9.28069406 C10.9812211,7.52297568 11.1213874,5.76603706 11.2595132,4.00909843 C11.3155484,3.29749618 11.7716775,3.04501228 12.662432,3.02395896" id="Fill-1" stroke-width="2.7"></path>
                    <polyline id="Path-717" stroke-width="2.3" stroke-linecap="round" stroke-linejoin="round" points="15.625 43 12 62.8091286 22.875 57.406639 33.75 62.8091286 30.125 43"></polyline>
                </g>
            </g>
        </g>
    </g>
</svg>