<?xml version="1.0" encoding="UTF-8" standalone="no"?><svg width="235px" height="59px" viewBox="0 0 235 59" version="1.1" xmlns="http://www.w3.org/2000/svg" xmlns:xlink="http://www.w3.org/1999/xlink"><!--Generator: Sketch 3.7.1 (28215) - http://www.bohemiancoding.com/sketch--><title>Page 1</title><desc>Created with Sketch.</desc><defs><path d="M3.86529078,0.0190669721 C3.02768852,0.0190669721 2.45659606,0.654632708 2.27257738,0.908859002 C2.08221323,1.18215227 1.93626738,2.22448007 1.93626738,3.0697825 L1.93626738,6.85139863 C1.93626738,7.69670106 2.08221323,8.07168484 2.27257738,8.33226679 C2.45659606,8.5992044 3.02768852,8.54835915 3.86529078,8.54835915 L21.3534108,8.54835915 L1.33979304,33.9709886 C0.813118888,34.6573996 0.235680963,35.5980369 0.235680963,36.4369836 L0.235680963,40.307579 C0.235680963,41.1465257 0.641791152,41.4261747 0.825809832,41.6867566 C1.00982851,41.9536942 1.84108531,41.8075141 2.68503304,41.8075141 L31.512511,41.8075141 C32.3437678,41.8075141 32.4897137,41.9536942 32.6737324,41.6867566 C32.857751,41.4261747 32.5785503,41.1465257 32.5785503,40.307579 L32.5785503,36.5196072 C32.5785503,35.6806604 32.857751,34.5366421 32.6737324,34.2633488 C32.4897137,34.0091225 32.3437678,33.2782219 31.512511,33.2782219 L12.0572948,33.2782219 L31.3475288,8.63098269 C31.8742029,7.9445717 31.7282571,7.77296895 31.7282571,6.93402218 L31.7282571,3.0697825 C31.7282571,2.22448007 32.0391852,1.18215227 31.8551665,0.908859002 C31.6711478,0.654632708 31.5632748,0.0190669721 30.7256725,0.0190669721 L3.86529078,0.0190669721 L3.86529078,0.0190669721 Z" id="path-1"/><path d="M9.61066217,1.85585195 C7.45954726,2.64395346 5.72723348,3.74983784 4.41372084,5.17350509 C2.78928008,6.95944481 1.97071423,8.87885333 1.97071423,10.9317307 C1.97071423,11.5100955 2.12935102,11.9677028 2.44662461,12.260063 C2.75755272,12.5460676 3.33499065,12.724026 4.17259291,12.724026 L9.29973405,12.724026 C10.1373363,12.724026 10.7147742,12.6032685 11.0257024,12.4189545 C11.3429759,12.2346404 11.6031403,11.8088114 11.8188863,11.1796013 C12.2376875,9.97202639 12.9674167,9.10765699 14.020765,8.61191572 C15.0741133,8.11617444 16.4130078,7.85559249 18.0374486,7.85559249 C20.3979641,7.85559249 22.1873871,8.40853468 23.3168811,9.51441906 C24.4400296,10.6203034 25.0491948,12.6668251 25.0491948,15.6666954 L25.0491948,17.7132171 C23.3486084,17.5606813 22.1873871,17.4399238 20.639092,17.3573002 C19.0907969,17.287388 17.6947931,17.2428984 16.482808,17.2428984 C14.2809293,17.2428984 12.1932692,17.4653464 10.2515548,17.9165981 C8.30984047,18.3614941 6.59656311,19.0987504 5.13075914,20.1220112 C3.65226423,21.145272 2.50373385,22.5308053 1.65978611,24.2595441 C0.815838376,26.0009942 0.397037243,28.1555621 0.397037243,30.7296033 C0.397037243,35.3565219 1.72324083,38.470794 4.37564801,40.5490939 C7.02805518,42.6273939 11.1335754,43.4218511 16.6985541,43.4218511 L18.9004328,43.4218511 C21.8447316,43.4218511 24.2813928,43.3010936 26.2294526,42.5638373 C28.1711669,41.8202254 29.719462,40.9495004 30.8743379,39.6847245 C32.0292137,38.4199487 32.6129971,37.0344154 33.082562,35.4073671 C33.5584724,33.7739632 33.5648179,32.1532706 33.5648179,30.4181761 L33.5648179,15.0374853 C33.5648179,12.7176704 33.5457815,10.6711487 33.0444892,8.87885333 C32.5495424,7.09291361 31.9149952,5.59297847 30.6776283,4.38540358 C29.4466067,3.17147302 27.8031296,2.2499027 25.7535422,1.62069263 C23.7039548,0.991482548 21.1340388,0.67369968 18.0374486,0.67369968 C14.572821,0.67369968 11.7617771,1.06775044 9.61066217,1.85585195 L9.61066217,1.85585195 Z M11.3429759,34.8989145 C10.1373363,34.0027669 9.53451651,32.6680788 9.53451651,30.4118205 C9.53451651,28.1492064 10.1373363,26.6683383 11.3429759,25.7213453 C12.554961,24.7743524 14.4141843,24.3612346 16.9333365,24.3612346 C17.9295756,24.3612346 19.1288697,24.4184356 20.4423824,24.4692808 C21.755895,24.5201261 23.3486084,24.6853732 25.0491948,24.8951099 L25.0491948,28.4415667 C25.0491948,31.4414369 24.459066,33.0811965 23.3549539,34.3459724 C22.2571873,35.6043925 20.3725822,35.7505726 17.8026661,35.7505726 L16.4637716,35.7505726 L15.930752,35.7505726 C13.9826922,35.7505726 12.4534335,35.7124387 11.3429759,34.8989145 L11.3429759,34.8989145 Z" id="path-3"/><path d="M14.5753897,2.01474338 C12.6273299,2.91089107 11.0853803,4.1438886 9.38479388,5.72644728 L9.38479388,4.06762071 C9.38479388,3.12062776 9.67668558,2.00838772 9.34037558,1.71602749 C8.99137463,1.43002291 8.79466501,0.781745855 7.79208048,0.781745855 L3.61676009,0.781745855 C2.62686651,0.781745855 1.41488141,1.43002291 1.07222594,1.71602749 C0.729570464,2.00838772 0.0188776324,3.12062776 0.0188776324,4.06762071 L0.0188776324,40.8287429 C0.0188776324,41.7757358 0.729570464,42.1189413 1.07222594,42.4113015 C1.41488141,42.6973061 2.62686651,42.570193 3.61676009,42.570193 L7.95071727,42.570193 C8.94695633,42.570193 9.07386576,42.6973061 9.41652124,42.4113015 C9.75917671,42.1189413 9.38479388,41.7757358 9.38479388,40.8287429 L9.38479388,17.7132171 C9.38479388,14.9294391 10.6475427,12.76216 12.0943103,11.2113796 C13.5347324,9.65424353 15.7937203,8.87885333 18.3128726,8.87885333 C20.8827886,8.87885333 22.4691565,9.52713038 23.4400137,10.8173288 C24.4108709,12.1011716 24.7091081,13.9570236 24.7091081,16.3721734 L24.7091081,40.8287429 C24.7091081,41.7757358 25.1977094,42.1189413 25.5403649,42.4113015 C25.8830203,42.6973061 26.8792594,42.570193 27.8754984,42.570193 L32.2094556,42.570193 C33.2056947,42.570193 33.5420047,42.6973061 33.8910056,42.4113015 C34.2273156,42.1189413 34.0750243,41.7757358 34.0750243,40.8287429 L34.0750243,14.9548618 C34.0750243,10.480479 33.3389496,6.98486744 31.2132166,4.46167146 C29.0811381,1.93847549 26.1114573,0.680055337 21.6505907,0.680055337 C19.1885477,0.680055337 16.5171041,1.12495135 14.5753897,2.01474338 L14.5753897,2.01474338 Z" id="path-5"/><path d="M4.67661265,5.37053047 C1.55464057,8.49751389 0.0571092454,12.9019844 0.0571092454,18.5839421 L0.0571092454,25.1302692 C0.0571092454,30.8122269 1.49118585,35.1531408 4.27684793,38.1530111 C7.06251002,41.1465257 10.6730834,42.6464609 15.927134,42.6464609 C20.3308914,42.6464609 23.8970465,41.4643086 25.5976329,39.0936484 L25.5976329,43.0405116 C25.5976329,45.6145529 25.343814,47.5085387 23.9795376,48.7224693 C22.5581519,50.1397809 20.5466374,50.8516145 17.4944655,50.8516145 C15.8129155,50.8516145 14.6390032,50.6673004 13.7442917,50.2923167 C12.8495802,49.9300442 12.0944691,49.2436332 11.3583944,48.245795 C10.9332478,47.6102293 10.5969378,46.8221277 10.2796642,46.6378137 C9.96873606,46.4598553 9.54358945,45.983181 8.96615153,45.983181 L3.7692102,45.983181 C2.34782453,45.983181 1.64982265,46.8602617 1.64982265,47.8644556 C1.64982265,50.8071249 3.06486284,53.3176096 5.89494322,54.9955031 C8.73136908,56.6797523 12.6147978,57.6140339 17.5515748,57.6140339 C23.9033919,57.6140339 28.1104397,56.444593 31.0230112,53.9976649 C33.9355827,51.5507368 34.9635491,47.6928528 34.9635491,42.328678 L34.9635491,16.9314712 C34.9635491,11.7770331 33.8467461,7.7793246 30.7501559,4.93199011 C27.6472202,2.09736693 23.5036272,0.67369968 17.8878848,0.67369968 C12.1642693,0.67369968 7.80493021,2.24354705 4.67661265,5.37053047 L4.67661265,5.37053047 Z M9.42302549,23.8654934 L9.42302549,18.9779929 C9.42302549,15.3489125 10.1527547,12.7113147 11.5233766,11.0524881 C12.887653,9.39366157 15.0831863,8.56742612 18.0782489,8.56742612 C21.0162023,8.56742612 23.1038625,9.39366157 24.4744844,11.0524881 C25.8387608,12.7113147 26.4479261,15.3489125 26.4479261,18.9779929 L26.4479261,23.8654934 C26.4479261,31.0728088 23.6495731,34.6764665 17.9767214,34.6764665 C12.2531059,34.6764665 9.42302549,31.0728088 9.42302549,23.8654934 L9.42302549,23.8654934 Z" id="path-7"/></defs><g id="Landing" stroke="none" stroke-width="1" fill="none" fill-rule="evenodd"><g id="Guest-Login" transform="translate(-1043.000000, -368.000000)"><g id="Group-8" transform="translate(446.000000, 186.000000)"><g id="Page-1" transform="translate(597.000000, 182.000000)"><polygon id="Fill-1" fill="#c00" points="0.10139259 0.749003261 0.0696652314 0.92060601 25.1533149 13.5365859 50.2750374 13.5365859 25.1533149 0.749003261"/><polygon id="Fill-2" fill="#c00" points="0.10139259 31.4544551 0.0696652314 31.6197022 25.1533149 44.2420377 50.2750374 44.2420377 25.1533149 31.4544551"/><polygon id="Fill-3" fill="#c00" points="25.1552185 16.1017292 0.0652234012 28.7240647 0.103296231 28.8893118 25.1552185 28.8893118 50.2705956 16.1017292"/><g id="Group-6" transform="translate(64.538759, 1.582230)"><mask id="mask-2" fill="white"><use xlink:href="#path-1"/></mask><g id="Clip-5"/><polygon id="Fill-4" fill="#FFFFFF" mask="url(#mask-2)" points="-10.0122559 52.1100347 42.9851239 52.1100347 42.9851239 -10.238964 -10.0122559 -10.238964"/></g><g id="Group-9" transform="translate(106.124261, 0.819551)"><mask id="mask-4" fill="white"><use xlink:href="#path-3"/></mask><g id="Clip-8"/><polygon id="Fill-7" fill="#FFFFFF" mask="url(#mask-4)" points="-9.8445541 53.6862377 43.8127547 53.6862377 43.8127547 -9.58433129 -9.8445541 -9.58433129"/></g><g id="Group-12" transform="translate(152.437291, 0.819551)"><mask id="mask-6" fill="white"><use xlink:href="#path-5"/></mask><g id="Clip-11"/><polygon id="Fill-10" fill="#FFFFFF" mask="url(#mask-6)" points="-10.2227137 52.8600022 44.3546885 52.8600022 44.3546885 -9.58433129 -10.2227137 -9.58433129"/></g><g id="Group-15" transform="translate(199.222295, 0.819551)"><mask id="mask-8" fill="white"><use xlink:href="#path-7"/></mask><g id="Clip-14"/><polygon id="Fill-13" fill="#FFFFFF" mask="url(#mask-8)" points="-10.1844821 67.8784206 45.2114859 67.8784206 45.2114859 -9.58433129 -10.1844821 -9.58433129"/></g></g></g></g></g></svg>