<?xml version="1.0" encoding="UTF-8" standalone="no"?>
<svg width="100px" height="100px" viewBox="0 0 100 100" version="1.1" xmlns="http://www.w3.org/2000/svg" xmlns:xlink="http://www.w3.org/1999/xlink">
    <!-- Generator: Sketch 3.6.1 (26313) - http://www.bohemiancoding.com/sketch -->
    <title>members-wht</title>
    <desc>Created with Sketch.</desc>
    <defs></defs>
    <g id="Page-1" stroke="none" stroke-width="1" fill="none" fill-rule="evenodd">
        <g id="members-wht" stroke="#FFFFFF" stroke-width="3">
            <g id="Group" transform="translate(8.000000, 17.000000)">
                <path d="M48.7179476,47.2348796 C48.7179476,47.2348796 47.481672,46.353638 49.1530215,45.220613 C50.8219936,44.0875881 53.6036137,41.0637672 54.9017031,36.9093424 C56.20217,32.7524966 55.8812138,24.9084778 55.8384196,22.4511694 C55.7980029,19.9938611 53.9744964,16.6964679 51.9346417,14.808093 C50.2228754,13.2223423 46.5853722,10 41.5095098,10 C36.4146278,10 32.7771246,13.2223423 31.0653583,14.808093 C29.0255036,16.6964679 27.2019971,19.9938611 27.1615804,22.4511694 C27.1187862,24.9084778 26.79783,32.7524966 28.0982969,36.9093424 C29.3963863,41.0637672 32.1780064,44.0875881 33.8469785,45.220613 C35.518328,46.353638 34.2820524,47.2348796 34.2820524,47.2348796 L17.9703467,55.7640396 C17.9703467,55.7640396 14,57.6863084 14,59.9547793 L14,63.3078553 C14,64.9589728 15.77358,65.7457957 16.6960318,65.7579007 C17.6161062,65.7700056 36.3599464,66 36.3599464,66 L41.2670096,66 L41.5,66 L41.7329904,66 L46.6400536,66 C46.6400536,66 65.3838938,65.7700056 66.3039682,65.7579007 C67.22642,65.7457957 69,64.9589728 69,63.3078553 L69,59.9547793 C69,57.6863084 65.0296533,55.7640396 65.0296533,55.7640396 L48.7179476,47.2348796 Z" id="Stroke-1"></path>
                <path d="M73.0070042,56 C76.727927,55.9538755 79.9352911,55.9150338 80.303817,55.9101786 C81.2239429,55.8980406 83,55.1114964 83,53.453442 L83,50.0912086 C83,47.81897 79.0270531,45.8890238 79.0270531,45.8890238 L62.7168102,37.3365701 C62.7168102,37.3365701 61.4804652,36.4529218 63.1495309,35.3168025 C64.8185966,34.1806832 67.6003727,31.1486041 68.9009125,26.9828334 C70.1990747,22.814635 69.8781005,14.9516213 69.8376815,12.4851743 C69.794885,10.0211548 67.9712762,6.71475637 65.931307,4.82122421 C64.2194448,3.23114271 60.5817376,0 55.5055905,0 C55.503213,0 55.5008354,0.00242760534 55.4960802,0.00242760534 C55.4937026,0.00242760534 55.491325,0 55.4889474,0 C51.2021591,0 47.9424881,2.30379747 46,3.97641755" id="Stroke-3"></path>
                <path d="M9.99299576,56 C6.272073,55.9538755 3.06470891,55.9150338 2.69618301,55.9101786 C1.77605706,55.8980406 0,55.1114964 0,53.453442 L0,50.0912086 C0,47.81897 3.97294692,45.8890238 3.97294692,45.8890238 L20.2831898,37.3365701 C20.2831898,37.3365701 21.5195348,36.4529218 19.8504691,35.3168025 C18.1814034,34.1806832 15.3996273,31.1486041 14.0990875,26.9828334 C12.8009253,22.814635 13.1218995,14.9516213 13.1623185,12.4851743 C13.205115,10.0211548 15.0287238,6.71475637 17.068693,4.82122421 C18.7805552,3.23114271 22.4182624,0 27.4944095,0 C27.496787,0 27.4991646,0.00242760534 27.5039198,0.00242760534 C27.5062974,0.00242760534 27.508675,0 27.5110526,0 C31.7978409,0 35.0575119,2.30379747 37,3.97641755" id="Stroke-5"></path>
            </g>
        </g>
    </g>
</svg>