<?xml version="1.0" encoding="UTF-8"?>
<svg width="100px" height="100px" viewBox="0 0 100 100" version="1.1" xmlns="http://www.w3.org/2000/svg" xmlns:xlink="http://www.w3.org/1999/xlink">
    <!-- Generator: Sketch 43.2 (39069) - http://www.bohemiancoding.com/sketch -->
    <title>standard</title>
    <desc>Created with Sketch.</desc>
    <defs></defs>
    <g id="Page-1" stroke="none" stroke-width="1" fill="none" fill-rule="evenodd">
        <g id="standard" fill-rule="nonzero" fill="#000000">
            <path d="M56.205,64.6422595 C52.7264851,63.8005853 50.2567864,60.6915674 50.205,57.089068 C50.0915872,53.8680595 51.320728,50.7460278 53.595,48.4784297 C53.595,48.4784297 55.53,46.8016212 54.24,41.3784297 C56.4,38.3571531 56.805,33.1605573 54.465,27.6014084 C52.965,24.1118339 51.675,22.2084297 49.695,21.0905573 C48.2454246,20.3369714 46.6308327,19.9629296 45,20.0028978 C42.5589506,20.0015261 40.1562245,20.6142568 38.01,21.7854509 C34.68,23.2960892 32.445,24.6103446 30.36,29.7918339 C28.665,33.9914084 30.705,38.8556637 31.77,41.2122595 C30.465,46.6354509 32.28,48.4935361 32.28,48.4935361 C34.554272,50.7611342 35.7834128,53.8831659 35.67,57.1041744 C35.6182136,60.7066738 33.1485149,63.8156916 29.67,64.6573658 C25.89,66.0018339 18,68.7511956 18,77.6035361 C18,78.4378385 18.6715729,79.1141744 19.5,79.1141744 L66.42,79.1141744 C67.2484271,79.1141744 67.92,78.4378385 67.92,77.6035361 C67.875,68.7360892 59.985,65.9867275 56.205,64.6422595 Z M21.075,76.1231105 C21.795,71.0775786 26.265,69.0231105 30.555,67.4822595 C35.2724828,66.2758078 38.580434,62.0058825 38.595,57.1041744 C38.7769223,53.4654511 37.5202654,49.9023028 35.1,47.1943871 C34.95,47.0131105 34.8,46.8469403 34.695,46.6958765 L34.59,46.559919 C34.485,46.3635361 33.9,45.0492807 34.665,41.8467275 C34.8111866,41.2093652 34.7480224,40.5414369 34.485,39.9433233 C33.765,38.3269403 31.83,34.0367275 33.12,30.8794935 C34.86,26.5741744 36.42,25.7131105 39.24,24.4592807 L39.645,24.232685 C41.313346,23.4186875 43.1462714,23.0050348 45,23.0241744 C46.1494555,22.9837462 47.2902296,23.2384718 48.315,23.7643871 C49.365,24.3535361 50.37,25.4411956 51.81,28.8552382 C53.85,33.6741744 53.31,37.7831105 51.93,39.7167275 C51.4318014,40.4209154 51.257059,41.3063237 51.45,42.1488552 C52.155,45.1701318 51.645,46.3182169 51.525,46.5297063 L51.285,46.8167275 C51.18,46.9677914 51.03,47.1339616 50.88,47.3152382 C48.462116,49.9971532 47.1903408,53.5301935 47.34,57.1494935 C47.354566,62.0512016 50.6625172,66.3211269 55.38,67.5275786 C59.64,69.0382169 64.14,71.092685 64.86,76.1684297 L21.075,76.1231105 Z M71.895,63.1467275 C68.762022,62.3857586 66.5318807,59.593822 66.465,56.3488552 C66.465,51.4997063 69.06,49.7775786 69.93,48.5992807 C69.93,48.5992807 71.7,47.0886424 70.515,42.2092807 C72.495,39.5354509 72.945,34.8222595 70.8,29.8220467 C69.9208027,27.3682732 68.2246109,25.2970545 66,23.9607701 C64.6596636,23.2918656 63.1749105,22.9699644 61.68,23.0241744 C59.7653641,23.0376435 57.8729253,23.4383365 56.115,24.2024722 C56.49,24.9275786 56.85,25.7131105 57.195,26.5288552 C57.195,26.6497063 57.285,26.7705573 57.33,26.8914084 C58.7054365,26.2982406 60.1838351,25.9850616 61.68,25.969919 C62.6888117,25.9364919 63.6896942,26.1599103 64.59,26.6194935 C66.2311797,27.6163128 67.4732593,29.1612138 68.1,30.9852382 C69.885,35.1545999 69.405,38.7348127 68.1,40.4418339 C67.5879073,41.1513368 67.4072618,42.0499442 67.605,42.9041744 C68.0334233,44.0834495 68.0754781,45.3699256 67.725,46.5750254 L67.515,46.8318339 L67.11,47.2850254 C64.6923125,49.6594492 63.3799547,52.9499021 63.495,56.3488552 C63.523027,60.9037588 66.6082801,64.8622479 70.995,65.9716212 C74.865,67.3311956 78.63,68.9928978 79.395,73.1622595 L70.185,73.1622595 C70.4664037,74.1482721 70.6473377,75.1605899 70.725,76.1835361 L81.225,76.1835361 C81.5801278,76.1961218 81.9246832,76.0606202 82.1773675,75.8090031 C82.4300517,75.557386 82.5684837,75.2119401 82.56,74.8541744 C82.545,66.832685 75.345,64.3401318 71.895,63.1316212 L71.895,63.1467275 Z" id="Shape"></path>
        </g>
    </g>
</svg>