<?xml version="1.0" encoding="UTF-8" standalone="no"?>
<svg width="319px" height="48px" viewBox="0 0 319 48" version="1.1" xmlns="http://www.w3.org/2000/svg" xmlns:xlink="http://www.w3.org/1999/xlink">
    <!-- Generator: Sketch 40.2 (33826) - http://www.bohemiancoding.com/sketch -->
    <title>Group</title>
    <desc>Created with Sketch.</desc>
    <defs></defs>
    <g id="Page-1" stroke="none" stroke-width="1" fill="none" fill-rule="evenodd">
        <g id="Group">
            <polygon id="Fill-1" fill="#c00" points="0.879047635 0.5135343 0.850545611 0.5316932 21.689412 10.8900676 42.558076 10.8900676 21.689412 0.5135343"></polygon>
            <polygon id="Fill-2" fill="#c00" points="0.879047635 25.1576713 0.850545611 25.8243635 21.689412 36.8312713 42.558076 36.8312713 21.689412 25.1576713"></polygon>
            <polygon id="Fill-3" fill="#c00" points="21.6896711 12.4840713 0.85080472 22.8437427 0.879306745 22.8606046 21.6896711 22.8606046 42.5570395 12.4840713"></polygon>
            <path d="M80.582497,29.0487415 L64.4231448,29.0487415 L80.6498654,8.2917837 C81.0851691,7.7262626 81.1745618,7.2943394 81.1745618,6.5952205 L81.1745618,3.3862775 C81.1745618,2.6884557 81.2263837,1.6456141 81.0748047,1.4251127 C80.9219302,1.2085026 80.6252501,0.5132749 79.928246,0.5132749 L57.6189343,0.5132749 C56.9219302,0.5132749 56.7185294,1.2085026 56.5656549,1.4251127 C56.4127804,1.6456141 56.5591772,2.6884557 56.5591772,3.3862775 L56.5591772,6.5303671 C56.5591772,7.2294861 56.4127804,7.7197773 56.5656549,7.9363874 C56.7185294,8.1555917 56.9219302,8.2956749 57.6189343,8.2956749 L72.1433067,8.2956749 L55.205331,29.2225485 C54.7687318,29.7906637 53.9680841,30.3937997 53.9680841,31.0916215 L53.9680841,34.3005645 C53.9680841,34.9996834 54.6262217,35.2227789 54.7803918,35.4419831 C54.9319707,35.6598903 55.9399059,35.5340749 56.6382055,35.5340749 L80.582497,35.5340749 C81.2795011,35.5340749 81.248408,35.6598903 81.402578,35.4419831 C81.5541569,35.2227789 81.1745618,34.9996834 81.1745618,34.3005645 L81.1745618,31.1564749 C81.1745618,30.458653 81.5541569,29.797149 81.402578,29.5792418 C81.248408,29.3613346 81.2795011,29.0487415 80.582497,29.0487415 L80.582497,29.0487415 L80.582497,29.0487415 Z" id="Fill-4" fill="#FFFFFF"></path>
            <path d="M109.676975,23.8215629 C109.676975,26.3106338 109.22742,27.9021346 108.311469,28.9501645 C107.395517,29.9981943 105.877137,30.3458082 103.739485,30.3458082 L102.627906,30.3458082 C100.796003,30.3458082 99.3786752,30.1512482 98.3759221,29.4093261 C97.3718735,28.6674039 96.870497,27.4455671 96.870497,25.5674146 C96.870497,23.6892621 97.3718735,22.4012749 98.3759221,21.6152525 C99.3786752,20.8305271 100.928149,20.458269 103.020457,20.458269 C103.848311,20.458269 104.799242,20.4919927 105.891388,20.536093 C106.980942,20.5788962 108.381428,20.7008205 109.676975,20.8746274 L109.676975,23.8215629 L109.676975,23.8215629 Z M114.436813,3.8454391 C113.41074,2.8415095 112.049121,2.0762402 110.348068,1.5522253 C108.647015,1.0282103 106.510659,0.7662029 103.936408,0.7662029 C101.057704,0.7662029 98.7244242,1.0943607 96.9378654,1.7493794 C95.1487157,2.4043981 93.7080679,3.3201271 92.6185132,4.5004578 C91.2672582,5.9843021 90.5909829,7.578397 90.5909829,9.2814455 C90.5909829,9.7626573 90.7231286,10.2062541 90.9835335,10.4449143 C91.2452339,10.6861687 91.7245861,10.8898082 92.4228857,10.8898082 L96.676165,10.8898082 C97.3718735,10.8898082 97.8525213,10.730269 98.1142217,10.5759181 C98.3759221,10.4241613 98.593574,10.0428237 98.7684727,9.5188087 C99.1169748,8.5148791 99.7284727,7.7859277 100.600376,7.3695693 C101.472278,6.955805 102.585153,6.7366007 103.936408,6.7366007 C105.899161,6.7366007 107.339809,7.1905741 108.27908,8.1076002 C109.21576,9.0246263 109.676975,10.7224866 109.676975,13.2115575 L109.676975,14.913309 C108.381428,14.7823053 107.339809,14.6850253 106.054627,14.6188749 C104.768149,14.5540215 103.626772,14.5202978 102.624019,14.5202978 C100.792116,14.5202978 99.0716306,14.7070754 97.4573796,15.0767394 C95.8444242,15.4489975 94.4270962,16.0599159 93.2066914,16.9107917 C91.984991,17.7629645 91.0262865,18.9095714 90.3279869,20.3493154 C89.6309829,21.7903565 89.2824808,23.5816055 89.2824808,25.7204685 C89.2824808,29.563677 90.3836954,32.4327885 92.5861246,34.1578871 C94.7885537,35.8829858 98.2010233,36.8311415 102.824829,36.8311415 L104.656732,36.8311415 C107.097542,36.8311415 109.127663,36.4394274 110.740618,35.8272119 C112.353574,35.2162935 113.640052,34.3446647 114.601347,33.2953378 C115.558756,32.248605 116.352926,31.0254711 116.745477,29.6713335 C117.136732,28.3197901 117.450254,26.8995021 117.450254,25.458461 L117.450254,12.6875426 C117.450254,10.7652898 117.125072,9.0635383 116.711793,7.578397 C116.295922,6.0945527 115.460295,4.8493687 114.436813,3.8454391 L114.436813,3.8454391 L114.436813,3.8454391 Z" id="Fill-6" fill="#FFFFFF"></path>
            <path d="M145.412165,0.766592 C143.36261,0.766592 141.328602,1.1375531 139.715647,1.8807723 C138.1001,2.6226944 136.883582,3.6486741 135.588035,4.9574144 L135.588035,3.5825237 C135.588035,2.7965013 135.647631,1.6991829 135.365201,1.4592256 C135.080181,1.2192683 134.726497,0.513664 133.898643,0.513664 L130.43176,0.513664 C129.60261,0.513664 128.785121,1.2192683 128.501396,1.4592256 C128.217671,1.6991829 127.814756,2.7965013 127.814756,3.5825237 L127.814756,34.1037995 C127.814756,34.8898219 128.217671,35.1686912 128.501396,35.4086485 C128.785121,35.6499029 129.60261,35.534464 130.43176,35.534464 L134.029493,35.534464 C134.858643,35.534464 135.146254,35.6499029 135.429979,35.4086485 C135.713704,35.1686912 135.588035,34.8898219 135.588035,34.1037995 L135.588035,14.9136981 C135.588035,12.5997312 136.454756,10.7994027 137.654432,9.5101184 C138.852813,8.2221312 140.634189,7.5774891 142.727793,7.5774891 C144.864149,7.5774891 146.430465,8.1131776 147.238886,9.1832576 C148.044716,10.2533376 148.543501,11.7916587 148.543501,13.7995179 L148.543501,34.1037995 C148.543501,34.8898219 148.656214,35.1686912 148.941234,35.4086485 C149.223663,35.6499029 149.75095,35.534464 150.5801,35.534464 L154.179129,35.534464 C155.006983,35.534464 155.584797,35.6499029 155.869817,35.4086485 C156.152246,35.1686912 156.31678,34.8898219 156.31678,34.1037995 L156.31678,12.6217813 C156.31678,8.9108736 155.411193,6.0067413 153.645363,3.9106816 C151.879533,1.8146219 149.118724,0.766592 145.412165,0.766592" id="Fill-8" fill="#FFFFFF"></path>
            <path d="M188.705315,20.0221952 C188.705315,26.0055637 186.322805,28.9953024 181.612197,28.9953024 C176.858837,28.9953024 174.454303,26.0055637 174.454303,20.0221952 L174.454303,15.9623765 C174.454303,12.9492907 174.892197,10.7546539 176.025801,9.3784661 C177.159404,8.0035755 178.905801,7.3161301 181.390659,7.3161301 C183.83406,7.3161301 185.746287,8.0035755 186.87989,9.3784661 C188.013493,10.7546539 188.705315,12.9492907 188.705315,15.9623765 L188.705315,20.0221952 L188.705315,20.0221952 Z M191.756327,4.3030443 C189.18078,1.9449771 185.77738,0.7659435 181.110821,0.7659435 C176.357461,0.7659435 172.925558,2.0656043 170.330578,4.6636288 C167.735598,7.2616533 166.681023,10.9180843 166.681023,15.6342187 L166.681023,21.0702251 C166.681023,25.7863595 167.701914,29.3883136 170.013169,31.8773845 C172.324424,34.3664555 175.166853,35.6103424 179.528959,35.6103424 C183.192764,35.6103424 186.114222,34.6284629 187.409768,32.6634069 L187.409768,35.9385003 C187.409768,38.0773632 187.268554,39.649408 186.133655,40.6533376 C184.957299,41.8336683 183.315841,42.4225365 180.786934,42.4225365 C179.391631,42.4225365 178.42904,42.2681856 177.687987,41.9633749 C176.945639,41.6572672 176.323776,41.0904491 175.712278,40.2603264 C175.363776,39.7376085 175.085234,38.9541803 174.824829,38.8024235 C174.563129,38.6480725 174.217218,38.1279488 173.737865,38.1279488 L169.421104,38.1279488 C168.242157,38.1279488 167.655274,38.9866069 167.655274,39.8167296 C167.655274,42.2617003 168.831631,44.4044544 171.186934,45.8026923 C173.542238,47.1996331 176.769444,48.0090027 180.869849,48.0090027 C186.14661,48.0090027 189.562967,47.0504704 191.984343,45.019264 C194.404424,42.9893547 195.183048,39.8024619 195.183048,35.3483349 L195.183048,14.2580309 C195.183048,9.9803051 194.327987,6.6611115 191.756327,4.3030443 L191.756327,4.3030443 L191.756327,4.3030443 Z" id="Fill-10" fill="#FFFFFF"></path>
            <path d="M239.303846,15.4650542 C239.303846,19.3664409 238.584778,23.0497537 237.146619,26.515103 C235.708461,29.9804524 233.780746,32.5660385 231.363416,34.271939 C228.946086,35.9778394 226.153959,36.8307769 222.986951,36.8307769 C219.162062,36.8307769 216.216942,35.6909771 214.151502,33.4113433 C212.086062,31.1317095 211.053358,27.8423544 211.053358,23.5431792 C211.053358,19.5346956 211.764776,15.8819815 213.187635,12.5849273 C214.610494,9.28787302 216.561158,6.75583454 219.039686,4.98873586 C221.518214,3.22163718 224.371538,2.33810109 227.599744,2.33810109 C231.378735,2.33810109 234.274132,3.47407606 236.286024,5.74606008 C238.297915,8.01804409 239.303846,11.2576764 239.303846,15.4650542 L239.303846,15.4650542 Z M227.278455,4.49532766 C224.616333,4.49532766 222.256412,5.26794363 220.198621,6.81319875 C218.140831,8.35845387 216.499978,10.6380535 215.276014,13.6520659 C214.052049,16.6660784 213.440076,19.8559879 213.440076,23.2218902 C213.440076,26.9702813 214.277714,29.8236056 215.953016,31.7819487 C217.628317,33.7402919 220.072385,34.7194487 223.285291,34.7194487 C225.870916,34.7194487 228.165815,33.9659569 230.170057,32.4589507 C232.174299,30.9519445 233.780728,28.6570455 234.989393,25.5741851 C236.198058,22.4913246 236.802381,19.1981447 236.802381,15.6945464 C236.802381,12.022653 236.002991,9.23817568 234.404188,7.34103078 C232.805384,5.44388588 230.430164,4.49532766 227.278455,4.49532766 L227.278455,4.49532766 Z M234.966444,47.226773 L234.966444,45.1613433 C235.77732,45.4061362 236.542286,45.5285308 237.261365,45.5285308 C238.607726,45.5285308 239.632781,45.1230986 240.336561,44.3122222 C241.04034,43.5013457 241.614065,42.0785084 242.057752,40.0436675 L247.70326,13.2848784 L242.99867,13.2848784 L243.319959,11.7472808 L248.024549,11.4259917 L248.827772,7.75411672 C249.363256,5.18379137 250.254442,3.31727357 251.501356,2.15450734 C252.748269,0.991741113 254.488568,0.410366719 256.722303,0.410366719 C257.839171,0.410366719 259.109015,0.647506274 260.531873,1.1217925 L259.958143,2.95773 C258.627081,2.544642 257.502581,2.33810109 256.584608,2.33810109 C255.11585,2.33810109 253.941627,2.74735807 253.061903,3.5658843 C252.182178,4.38441052 251.535782,5.74987539 251.122694,7.66231984 L250.319471,11.4259917 L261.266248,11.4259917 L262.069471,7.75411672 C262.604955,5.18379137 263.496141,3.31727357 264.743055,2.15450734 C265.989969,0.991741113 267.730267,0.410366719 269.964002,0.410366719 C271.08087,0.410366719 272.350714,0.647506274 273.773572,1.1217925 L273.222791,2.95773 C271.89173,2.544642 270.75958,2.33810109 269.826307,2.33810109 C268.34225,2.33810109 267.160377,2.75500773 266.280653,3.58883352 C265.400928,4.4226593 264.769831,5.7804745 264.387342,7.66231984 L263.584119,11.4259917 L269.275526,11.4259917 L268.885389,13.2848784 L263.193983,13.2848784 L257.410779,40.5944487 C256.890595,43.1188754 256.083555,44.9280208 254.989637,46.021939 C253.895719,47.1158572 252.415509,47.6628081 250.548963,47.6628081 C249.814584,47.6628081 249.034319,47.5174645 248.208143,47.226773 L248.208143,45.1613433 C249.019019,45.4061362 249.783986,45.5285308 250.503065,45.5285308 C251.849426,45.5285308 252.87448,45.1230986 253.57826,44.3122222 C254.28204,43.5013457 254.855764,42.0785084 255.299451,40.0436675 L260.899061,13.2848784 L249.952283,13.2848784 L244.16908,40.5944487 C243.664195,43.0576772 242.86863,44.8515232 241.782362,45.9760405 C240.696093,47.1005579 239.204409,47.6628081 237.307264,47.6628081 C236.572885,47.6628081 235.79262,47.5174645 234.966444,47.226773 Z M270.881971,36.3717925 L268.632947,36.3717925 L273.934217,11.4259917 L276.137342,11.4259917 L270.881971,36.3717925 Z M274.921033,5.02315969 C274.921033,4.18168413 275.089326,3.50851377 275.425916,3.00362844 C275.762506,2.4987431 276.221486,2.24630422 276.802869,2.24630422 C277.674944,2.24630422 278.110975,2.79707996 278.110975,3.89864797 C278.110975,4.77072264 277.942682,5.45919232 277.606092,5.96407766 C277.269502,6.46896299 276.833471,6.72140187 276.297987,6.72140187 C275.854299,6.72140187 275.513889,6.57223344 275.276746,6.27389211 C275.039603,5.97555077 274.921033,5.55864414 274.921033,5.02315969 L274.921033,5.02315969 Z M288.736463,36.8307769 C286.07434,36.8307769 283.974508,35.9854891 282.436903,34.2948882 C280.899297,32.6042873 280.130506,30.2596656 280.130506,27.2609527 C280.130506,24.3081384 280.692756,21.5427852 281.817274,18.9648101 C282.941791,16.3868349 284.460249,14.4208715 286.372694,13.0668609 C288.285138,11.7128502 290.50354,11.035855 293.027967,11.035855 C295.078107,11.035855 296.921676,11.3647905 298.558729,12.0226714 L297.916151,14.0881011 C296.279098,13.369022 294.611472,13.0094878 292.913221,13.0094878 C290.939578,13.0094878 289.161032,13.5985119 287.577528,14.7765777 C285.994024,15.9546434 284.750953,17.6528686 283.848279,19.8713042 C282.945606,22.0897398 282.494276,24.537632 282.494276,27.2150542 C282.494276,29.632384 283.056526,31.495077 284.181043,32.803189 C285.305561,34.111301 286.900515,34.7653472 288.965955,34.7653472 C290.052224,34.7653472 291.058154,34.6659016 291.983778,34.4670073 C292.909401,34.2681131 293.915331,33.9162286 295.0016,33.4113433 L295.0016,35.5226714 C293.226851,36.3947461 291.138493,36.8307769 288.736463,36.8307769 L288.736463,36.8307769 Z M308.908826,36.8307769 C306.262003,36.8307769 304.196594,35.9931388 302.712537,34.3178374 C301.22848,32.6425361 300.486463,30.305564 300.486463,27.3068511 C300.486463,24.5376315 301.029589,21.8831984 302.115858,19.3434722 C303.202126,16.8037459 304.697635,14.7842349 306.60243,13.2848784 C308.507225,11.785522 310.607057,11.035855 312.90199,11.035855 C314.64614,11.035855 316.038378,11.5024844 317.078748,12.4357573 C318.119118,13.3690302 318.639295,14.6388743 318.639295,16.2453277 C318.639295,19.0145472 317.388575,21.1258542 314.887098,22.579312 C312.385621,24.0327698 308.671709,24.7594878 303.745252,24.7594878 L302.987928,24.7594878 C302.896131,25.4326683 302.850233,26.1823352 302.850233,27.0085112 C302.850233,29.5329379 303.416308,31.4568282 304.548475,32.7802398 C305.680642,34.1036513 307.31002,34.7653472 309.436658,34.7653472 C311.4562,34.7653472 313.567507,34.2069218 315.770643,33.0900542 L315.770643,35.2472808 C313.628705,36.3029501 311.341456,36.8307769 308.908826,36.8307769 L308.908826,36.8307769 Z M312.6266,13.0094878 C310.622358,13.0094878 308.759665,13.8930239 307.038465,15.6601226 C305.317265,17.4272213 304.074195,19.7871423 303.309217,22.7399566 L304.433729,22.7399566 C312.343599,22.7399566 316.298475,20.6745475 316.298475,16.5436675 C316.298475,15.5185973 315.965714,14.6733095 315.300184,14.0077788 C314.634653,13.3422482 313.743467,13.0094878 312.6266,13.0094878 L312.6266,13.0094878 Z" id="Oﬃce" fill="#CDCDCD"></path>
        </g>
    </g>
</svg>