<?xml version="1.0" encoding="UTF-8" standalone="no"?>
<svg width="512px" height="513px" viewBox="0 0 512 513" version="1.1" xmlns="http://www.w3.org/2000/svg" xmlns:xlink="http://www.w3.org/1999/xlink">
    <!-- Generator: Sketch 40.2 (33826) - http://www.bohemiancoding.com/sketch -->
    <title>Group 52</title>
    <desc>Created with Sketch.</desc>
    <defs></defs>
    <g id="ONBOARDING/SLIDES---Spaces" stroke="none" stroke-width="1" fill="none" fill-rule="evenodd">
        <g id="all" transform="translate(-3478.000000, -1444.000000)">
            <g id="Group-52" transform="translate(3478.000000, 1444.000000)">
                <rect id="Rectangle-4" fill="#c00" x="0" y="0" width="512" height="513"></rect>
                <path d="M256.00169,245.066872 C281.872738,245.066872 302.925929,224.124461 302.925929,198.386424 C302.925929,172.656792 281.874429,151.722786 256.00169,151.722786 C230.125571,151.722786 209.072381,172.655111 209.072381,198.386424 C209.074071,224.124461 230.125571,245.066872 256.00169,245.066872 L256.00169,245.066872 Z M256.002087,166.928238 C273.442327,166.928238 287.63219,181.035828 287.63219,198.385112 C287.63219,215.74217 273.444282,229.86142 256.002087,229.86142 C238.559891,229.86142 224.366119,215.74217 224.366119,198.385112 C224.366119,181.037771 238.559891,166.928238 256.002087,166.928238 L256.002087,166.928238 Z" id="Shape" fill="#FFFFFF"></path>
                <path d="M265.784476,46.4156888 C265.784476,46.4156888 261.402762,41.4586962 256.00169,41.4586962 C250.598929,41.4586962 246.218905,46.4156888 246.218905,46.4156888 C230.620881,60.5000024 170.343571,122.535529 168.641262,238.037322 C155.205357,249.517912 114.970333,293.028171 114.970333,402.283716 C114.970333,406.205271 117.337,409.740217 120.974905,411.256394 C122.195429,411.765709 123.47681,412.011121 124.753119,412.011121 C127.271929,412.011121 129.746786,411.042919 131.613071,409.217455 C145.447929,395.676074 187.295667,360.541771 214.449786,360.541771 L297.545143,360.541771 C324.646857,360.541771 366.535167,395.679436 380.386929,409.217455 C382.253214,411.042919 384.733143,412.011121 387.248571,412.011121 C388.524881,412.011121 389.811333,411.760666 391.030167,411.251351 C394.66469,409.735174 397.031357,406.20359 397.031357,402.282036 C397.031357,293.002957 356.776048,249.501103 343.348595,238.028918 C341.646286,122.535529 281.379119,60.5016833 265.784476,46.4156888 Z M256.018482,61.4701991 C263.413365,68.7885439 275.70588,82.4119538 288.354869,102.303828 L223.763464,102.303828 C236.395017,82.442776 248.658472,68.8001022 256.018482,61.4701991 L256.018482,61.4701991 Z M215.615923,115.886656 L296.500878,115.886656 C312.271678,146.695946 325.966274,188.973061 325.966274,243.2631 C325.966274,290.826801 315.271994,325.662895 294.993759,344.358894 L217.00818,344.358894 C196.721244,325.657704 186.026964,290.82161 186.026964,243.2631 C186.025224,189.068237 199.791173,146.74959 215.615923,115.886656 L215.615923,115.886656 Z M199.254842,347.325791 C174.072462,355.117106 148.206459,373.690652 130.986849,387.890798 C135.003859,317.857042 155.212156,278.228372 170.036195,258.19575 C173.042212,296.294496 182.867134,326.063868 199.254842,347.325791 Z M312.751486,347.329483 C329.178544,326.020938 339.016685,296.158734 341.988723,257.907474 C356.808494,277.658025 377.02952,317.072995 381.010204,387.896681 C363.793939,373.69864 337.934894,355.123285 312.751486,347.329483 L312.751486,347.329483 Z" id="Shape" fill="#FFFFFF"></path>
                <path d="M256.00169,385.681405 C250.598929,385.681405 246.218905,390.036633 246.218905,395.40881 L246.218905,466.566615 C246.218905,471.938791 250.598929,476.294019 256.00169,476.294019 C261.402762,476.294019 265.784476,471.938791 265.784476,466.566615 L265.784476,395.40881 C265.786167,390.036633 261.404452,385.681405 256.00169,385.681405 L256.00169,385.681405 Z" id="Shape" fill="#FFFFFF"></path>
                <path d="M295.213976,385.681405 C289.812905,385.681405 285.43119,390.036633 285.43119,395.40881 L285.43119,441.911082 C285.43119,447.281577 289.812905,451.638486 295.213976,451.638486 C300.616738,451.638486 304.996762,447.283258 304.996762,441.911082 L304.996762,395.40881 C304.996762,390.036633 300.616738,385.681405 295.213976,385.681405 L295.213976,385.681405 Z" id="Shape" fill="#FFFFFF"></path>
                <path d="M216.786024,385.681405 C211.384952,385.681405 207.003238,390.036633 207.003238,395.40881 L207.003238,441.911082 C207.003238,447.281577 211.384952,451.638486 216.786024,451.638486 C222.187095,451.638486 226.56881,447.283258 226.56881,441.911082 L226.56881,395.40881 C226.56881,390.036633 222.187095,385.681405 216.786024,385.681405 L216.786024,385.681405 Z" id="Shape" fill="#FFFFFF"></path>
            </g>
        </g>
    </g>
</svg>