<?xml version="1.0" encoding="utf-8"?>
<!-- Generator: Adobe Illustrator 20.0.0, SVG Export Plug-In . SVG Version: 6.00 Build 0)  -->
<svg version="1.1" id="Layer_1" xmlns="http://www.w3.org/2000/svg" xmlns:xlink="http://www.w3.org/1999/xlink" x="0px" y="0px"
	 width="1920px" height="308.61px" viewBox="0 0 1920 308.61" style="enable-background:new 0 0 1920 308.61;" xml:space="preserve"
	>
<style type="text/css">
	.st0{fill:#FFFFFF;}
</style>
<g>
	<g>
		<path class="st0" d="M120.521,194.299c-1.583,0-2.588-0.287-3.019-0.863c-0.432-0.573-0.647-1.725-0.647-3.451v-4.097
			c0-2.588,0.647-4.745,1.941-6.47l61.032-83.677h-56.072c-1.584,0-2.588-0.287-3.02-0.863c-0.432-0.573-0.646-1.726-0.646-3.451
			v-5.823c0-1.726,0.215-2.875,0.646-3.451c0.432-0.573,1.436-0.863,3.02-0.863h73.11c1.58,0,2.588,0.29,3.019,0.863
			c0.432,0.576,0.647,1.725,0.647,3.451v4.098c0,2.588-0.647,4.745-1.941,6.47l-61.032,83.677h61.464c1.58,0,2.588,0.29,3.02,0.863
			c0.431,0.576,0.646,1.726,0.646,3.451v5.823c0,1.726-0.216,2.878-0.646,3.451c-0.432,0.576-1.439,0.863-3.02,0.863H120.521z"/>
		<path class="st0" d="M305.991,125.287c2.874,0,6.541,0.145,10.999,0.431c4.455,0.29,8.913,0.721,13.371,1.294v-12.724
			c0-7.905-1.833-13.621-5.499-17.145c-3.667-3.521-9.672-5.284-18.009-5.284c-6.759,0-11.898,0.971-15.42,2.912
			c-3.524,1.941-6.291,5.284-8.303,10.028c-0.721,1.584-1.294,2.588-1.726,3.02c-0.431,0.431-1.509,0.647-3.234,0.647h-7.764
			c-1.871,0-3.128-0.287-3.774-0.863c-0.647-0.573-0.971-1.651-0.971-3.235c0-2.012,0.573-4.206,1.726-6.578
			c1.148-2.373,2.588-4.563,4.313-6.578c3.736-4.313,8.41-7.548,14.018-9.705s12.65-3.235,21.135-3.235
			c14.376,0,24.728,2.77,31.056,8.303c6.325,5.537,9.489,14.631,9.489,27.282v44.211c0,13.084-3.234,22.752-9.704,29.007
			c-6.471,6.254-16.822,9.381-31.056,9.381h-3.235c-14.665,0-25.485-2.696-32.457-8.087c-6.976-5.392-10.46-14.126-10.46-26.203
			c0-12.795,3.666-22.139,10.999-28.037C278.817,128.236,290.318,125.287,305.991,125.287z M307.285,139.521
			c-11.073,0-18.729,1.726-22.968,5.176c-4.243,3.451-6.362,9.203-6.362,17.253c0,7.046,1.975,12.151,5.931,15.312
			c3.953,3.165,10.891,4.745,20.812,4.745h1.941c8.481,0,14.557-2.049,18.224-6.146c3.666-4.097,5.499-10.675,5.499-19.733v-14.665
			c-4.313-0.573-8.593-1.042-12.832-1.402C313.287,139.703,309.873,139.521,307.285,139.521z"/>
		<path class="st0" d="M467.954,78.273c12.077,0,21.276,3.235,27.604,9.705c6.325,6.47,9.489,15.888,9.489,28.252v73.757
			c0,1.726-0.323,2.878-0.97,3.451c-0.647,0.576-1.834,0.863-3.559,0.863h-7.979c-1.726,0-2.912-0.287-3.559-0.863
			c-0.647-0.573-0.971-1.725-0.971-3.451v-70.09c0-9.2-1.941-15.922-5.823-20.165c-3.882-4.239-10.136-6.362-18.763-6.362
			c-8.626,0-15.494,2.77-20.596,8.303c-5.105,5.537-7.656,12.906-7.656,22.105v66.208c0,1.726-0.323,2.878-0.971,3.451
			c-0.646,0.576-1.833,0.863-3.558,0.863h-7.979c-1.726,0-2.912-0.287-3.559-0.863c-0.647-0.573-0.971-1.725-0.971-3.451V85.605
			c0-1.726,0.323-2.875,0.971-3.451c0.646-0.573,1.833-0.863,3.559-0.863h7.548c1.726,0,2.911,0.29,3.559,0.863
			c0.646,0.576,0.971,1.725,0.971,3.451v7.548c3.592-4.744,8.229-8.411,13.91-10.999C454.33,79.567,460.763,78.273,467.954,78.273z"
			/>
		<path class="st0" d="M595.41,210.258c1.58,3.306,4.169,5.786,7.764,7.44c3.593,1.651,8.627,2.48,15.097,2.48
			c10.207,0,17.61-2.015,22.214-6.039c5.03-4.603,7.548-11.791,7.548-21.566v-10.136c-3.596,4.171-8.054,7.333-13.371,9.489
			c-5.321,2.156-11.359,3.235-18.116,3.235c-14.233,0-25.124-4.023-32.673-12.077c-7.548-8.05-11.322-19.696-11.322-34.938v-20.704
			c0-15.669,3.99-27.783,11.97-36.339c7.979-8.552,19.372-12.832,34.183-12.832c14.807,0,26.236,4.097,34.29,12.292
			c8.051,8.195,12.077,19.771,12.077,34.722v66.424c0,8.195-1.078,15.022-3.234,20.488c-2.157,5.462-5.284,9.813-9.382,13.048
			s-9.024,5.533-14.772,6.901c-5.753,1.365-12.293,2.049-19.626,2.049c-6.038,0-11.538-0.576-16.498-1.726
			c-4.96-1.152-9.203-2.804-12.724-4.96c-3.525-2.157-6.292-4.711-8.304-7.656c-2.015-2.949-3.02-6.221-3.02-9.812
			c0-1.584,0.287-2.555,0.863-2.912c0.572-0.361,1.866-0.539,3.882-0.539h8.195c1.58,0,2.621,0.178,3.127,0.539
			C594.079,207.488,594.689,208.533,595.41,210.258z M589.587,144.697c0,23.868,9.776,35.8,29.331,35.8
			c19.409,0,29.114-11.933,29.114-35.8v-15.959c0-23.865-9.779-35.8-29.33-35.8c-19.41,0-29.115,11.936-29.115,35.8V144.697z"/>
		<path class="st0" d="M1000.888,197.319c-15.672,0-27.247-3.521-34.722-10.568c-5.607-5.317-8.411-11.646-8.411-18.979
			c0-1.58,0.324-2.659,0.971-3.235c0.647-0.573,1.904-0.862,3.774-0.862h6.254c1.726,0,2.912,0.215,3.559,0.647
			c0.647,0.431,1.112,1.438,1.402,3.019c1.294,5.752,4.023,9.92,8.194,12.508c4.169,2.588,10.353,3.882,18.548,3.882
			c16.39,0,24.585-5.823,24.585-17.469c0-5.462-1.476-9.739-4.421-12.832c-2.948-3.09-8.017-5.57-15.204-7.44l-19.194-4.96
			c-8.916-2.443-15.457-6.001-19.625-10.675c-4.172-4.67-6.255-10.891-6.255-18.655v-1.079c0-9.92,3.593-17.792,10.783-23.615
			c7.188-5.823,17.038-8.734,29.547-8.734c15.096,0,26.021,3.595,32.78,10.783c5.176,5.176,7.764,11.289,7.764,18.331
			c0,1.584-0.323,2.662-0.97,3.235c-0.647,0.577-1.907,0.863-3.774,0.863h-6.254c-1.871,0-3.094-0.215-3.667-0.647
			c-0.576-0.431-1.007-1.436-1.294-3.019c-1.725-10.783-10.426-16.175-26.095-16.175c-7.191,0-12.762,1.583-16.714,4.745
			c-3.956,3.164-5.932,7.622-5.932,13.371c0,2.446,0.357,4.529,1.079,6.254c0.718,1.726,1.94,3.309,3.666,4.745
			c1.726,1.439,3.989,2.733,6.793,3.882c2.804,1.152,6.288,2.23,10.46,3.235l17.685,4.529c17.253,4.313,25.88,14.81,25.88,31.487
			v1.079C1042.08,186.536,1028.348,197.319,1000.888,197.319z"/>
		<path class="st0" d="M1155.948,197.319c-6.901,0-13.084-1.153-18.547-3.451c-5.466-2.298-9.85-5.607-13.155-9.921v42.917
			c0,1.725-0.323,2.874-0.971,3.45c-0.646,0.573-1.833,0.863-3.559,0.863h-7.979c-1.726,0-2.911-0.29-3.559-0.863
			c-0.646-0.576-0.97-1.725-0.97-3.45v-99.421c0-15.669,4.061-27.783,12.185-36.339c8.121-8.552,19.588-12.832,34.398-12.832
			c14.807,0,26.236,3.99,34.29,11.969c8.051,7.979,12.077,19.302,12.077,33.967v22.86
			C1200.159,180.571,1185.42,197.319,1155.948,197.319z M1183.122,128.738c0-23.865-9.779-35.8-29.33-35.8
			c-19.699,0-29.546,11.936-29.546,35.8v18.116c0,11.646,2.48,20.525,7.44,26.634c4.96,6.113,12.256,9.166,21.89,9.166
			c19.696,0,29.546-11.932,29.546-35.8V128.738z"/>
		<path class="st0" d="M1308.851,125.287c2.874,0,6.541,0.145,10.999,0.431c4.455,0.29,8.913,0.721,13.371,1.294v-12.724
			c0-7.905-1.833-13.621-5.499-17.145c-3.667-3.521-9.672-5.284-18.009-5.284c-6.759,0-11.898,0.971-15.42,2.912
			c-3.524,1.941-6.291,5.284-8.303,10.028c-0.721,1.584-1.294,2.588-1.726,3.02c-0.431,0.431-1.509,0.647-3.234,0.647h-7.764
			c-1.871,0-3.128-0.287-3.774-0.863c-0.647-0.573-0.971-1.651-0.971-3.235c0-2.012,0.573-4.206,1.726-6.578
			c1.148-2.373,2.588-4.563,4.313-6.578c3.736-4.313,8.41-7.548,14.018-9.705s12.65-3.235,21.135-3.235
			c14.376,0,24.728,2.77,31.056,8.303c6.325,5.537,9.489,14.631,9.489,27.282v44.211c0,13.084-3.234,22.752-9.704,29.007
			c-6.471,6.254-16.822,9.381-31.056,9.381h-3.235c-14.665,0-25.485-2.696-32.457-8.087c-6.976-5.392-10.46-14.126-10.46-26.203
			c0-12.795,3.666-22.139,10.999-28.037C1281.677,128.236,1293.178,125.287,1308.851,125.287z M1310.145,139.521
			c-11.073,0-18.729,1.726-22.968,5.176c-4.243,3.451-6.362,9.203-6.362,17.253c0,7.046,1.975,12.151,5.931,15.312
			c3.953,3.165,10.891,4.745,20.812,4.745h1.941c8.481,0,14.557-2.049,18.224-6.146c3.666-4.097,5.499-10.675,5.499-19.733v-14.665
			c-4.313-0.573-8.593-1.042-12.832-1.402C1316.146,139.703,1312.732,139.521,1310.145,139.521z"/>
		<path class="st0" d="M1461.324,182.654c14.665,0,23.076-6.18,25.232-18.547c0.286-1.581,0.718-2.588,1.294-3.02
			c0.573-0.431,1.796-0.647,3.666-0.647h7.117c1.867,0,3.127,0.29,3.774,0.863c0.646,0.576,0.971,1.655,0.971,3.235
			c0,2.588-0.539,5.5-1.618,8.734c-1.078,3.235-2.625,6.292-4.637,9.166c-6.614,9.92-18.691,14.881-36.231,14.881
			c-14.523,0-25.522-3.953-32.996-11.862c-7.478-7.905-11.215-19.625-11.215-35.153v-21.351c0-16.822,3.737-29.472,11.215-37.957
			c7.474-8.482,18.473-12.724,32.996-12.724c15.67,0,27.029,3.956,34.075,11.861c5.462,6.184,8.195,13.155,8.195,20.919
			c0,1.583-0.323,2.662-0.971,3.235c-0.646,0.576-1.907,0.863-3.774,0.863h-6.901c-1.87,0-3.093-0.216-3.666-0.647
			c-0.576-0.432-1.008-1.436-1.294-3.02c-0.721-6.039-3.201-10.675-7.44-13.91c-4.242-3.235-10.028-4.853-17.36-4.853
			c-9.779,0-16.896,2.841-21.351,8.519c-4.459,5.682-6.687,14.847-6.687,27.498v18.116c0,12.367,2.228,21.425,6.687,27.173
			C1444.859,179.779,1451.835,182.654,1461.324,182.654z"/>
		<path class="st0" d="M1583.818,142.971v4.098c0,23.723,9.631,35.584,28.899,35.584c12.219,0,20.343-4.67,24.37-14.018
			c0.718-1.725,1.327-2.767,1.833-3.127c0.502-0.357,1.543-0.539,3.127-0.539h7.764c2.012,0,3.306,0.182,3.883,0.539
			c0.572,0.36,0.862,1.331,0.862,2.911c0,2.015-0.792,4.604-2.372,7.764c-1.584,3.164-3.38,5.897-5.392,8.195
			c-3.596,4.027-8.448,7.191-14.558,9.489c-6.112,2.298-12.832,3.451-20.165,3.451c-14.523,0-25.7-4.239-33.535-12.725
			c-7.838-8.481-11.754-20.559-11.754-36.231v-16.175c0-17.395,3.882-30.732,11.646-40.005c7.765-9.273,19.05-13.91,33.859-13.91
			c29.617,0,44.427,16.464,44.427,49.387v10.999c0,1.725-0.323,2.877-0.971,3.451c-0.646,0.576-1.833,0.862-3.558,0.862H1583.818z
			 M1612.286,91.644c-18.837,0-28.326,12.438-28.468,37.31h55.642c0-12.795-2.193-22.213-6.578-28.252
			C1628.495,94.663,1621.631,91.644,1612.286,91.644z"/>
		<path class="st0" d="M1761.953,197.319c-15.672,0-27.247-3.521-34.722-10.568c-5.607-5.317-8.411-11.646-8.411-18.979
			c0-1.58,0.324-2.659,0.971-3.235c0.647-0.573,1.904-0.862,3.774-0.862h6.254c1.726,0,2.912,0.215,3.559,0.647
			c0.647,0.431,1.112,1.438,1.402,3.019c1.294,5.752,4.023,9.92,8.194,12.508c4.169,2.588,10.353,3.882,18.548,3.882
			c16.39,0,24.585-5.823,24.585-17.469c0-5.462-1.476-9.739-4.421-12.832c-2.948-3.09-8.017-5.57-15.204-7.44l-19.194-4.96
			c-8.916-2.443-15.457-6.001-19.625-10.675c-4.172-4.67-6.255-10.891-6.255-18.655v-1.079c0-9.92,3.593-17.792,10.783-23.615
			c7.188-5.823,17.038-8.734,29.547-8.734c15.096,0,26.021,3.595,32.78,10.783c5.176,5.176,7.764,11.289,7.764,18.331
			c0,1.584-0.323,2.662-0.97,3.235c-0.647,0.577-1.907,0.863-3.774,0.863h-6.254c-1.871,0-3.094-0.215-3.667-0.647
			c-0.576-0.431-1.007-1.436-1.294-3.019c-1.725-10.783-10.426-16.175-26.095-16.175c-7.191,0-12.762,1.583-16.714,4.745
			c-3.956,3.164-5.932,7.622-5.932,13.371c0,2.446,0.357,4.529,1.079,6.254c0.718,1.726,1.94,3.309,3.666,4.745
			c1.726,1.439,3.989,2.733,6.793,3.882c2.804,1.152,6.288,2.23,10.46,3.235l17.685,4.529c17.253,4.313,25.88,14.81,25.88,31.487
			v1.079C1803.146,186.536,1789.413,197.319,1761.953,197.319z"/>
	</g>
	<g>
		<path class="st0" d="M814.001,148.019c15.304,0,27.758-12.459,27.758-27.771c0-15.307-12.453-27.761-27.758-27.761
			c-15.307,0-27.761,12.453-27.761,27.761C786.241,135.56,798.694,148.019,814.001,148.019z M814.001,104.062
			c8.923,0,16.183,7.259,16.183,16.186c0,8.931-7.259,16.196-16.183,16.196c-8.924,0-16.186-7.265-16.186-16.196
			C797.815,111.322,805.077,104.062,814.001,104.062z"/>
		<path class="st0" d="M865.671,143.832c-1.007-68.709-36.658-105.614-45.883-113.994c0,0-2.592-2.949-5.787-2.949
			c-3.196,0-5.787,2.949-5.787,2.949c-9.227,8.379-44.884,45.285-45.891,113.999c-7.948,6.83-31.749,32.715-31.749,97.713
			c0,2.333,1.4,4.436,3.552,5.338c0.722,0.303,1.48,0.449,2.235,0.449c1.49,0,2.954-0.576,4.058-1.662
			c8.184-8.056,32.939-28.958,49.002-28.958h49.155h0.003h0.003c16.026,0,40.805,20.904,48.999,28.958
			c1.104,1.086,2.571,1.662,4.059,1.662c0.755,0,1.516-0.149,2.237-0.452c2.15-0.902,3.55-3.003,3.55-5.336
			C897.427,176.537,873.614,150.657,865.671,143.832z M814.014,40.342c3.817,3.799,10.162,10.871,16.691,21.197h-33.34
			C803.885,51.229,810.215,44.147,814.014,40.342z M790.795,73.114h46.477c9.062,17.804,16.931,42.235,16.931,73.608
			c0,27.486-6.145,47.617-17.797,58.421h-44.811c-11.657-10.807-17.802-30.938-17.802-58.421
			C773.792,115.404,781.702,90.949,790.795,73.114z M762.793,160.542c1.561,19.897,6.663,35.444,15.173,46.548
			c-13.077,4.069-26.509,13.769-35.451,21.185C744.601,191.7,755.095,171.004,762.793,160.542z M850.03,207.087
			c8.534-11.133,13.645-26.735,15.189-46.72c7.699,10.319,18.204,30.912,20.272,67.915
			C876.547,220.864,863.113,211.159,850.03,207.087z"/>
		<path class="st0" d="M814.001,231.673c-3.196,0-5.787,2.591-5.787,5.787v42.333c0,3.196,2.591,5.787,5.787,5.787
			c3.195,0,5.787-2.591,5.787-5.787V237.46C819.789,234.264,817.197,231.673,814.001,231.673z"/>
		<path class="st0" d="M837.197,231.673c-3.195,0-5.787,2.591-5.787,5.787v27.665c0,3.195,2.592,5.787,5.787,5.787
			c3.196,0,5.787-2.591,5.787-5.787V237.46C842.984,234.264,840.393,231.673,837.197,231.673z"/>
		<path class="st0" d="M790.803,231.673c-3.195,0-5.787,2.591-5.787,5.787v27.665c0,3.195,2.592,5.787,5.787,5.787
			c3.195,0,5.787-2.591,5.787-5.787V237.46C796.59,234.264,793.998,231.673,790.803,231.673z"/>
	</g>
</g>
</svg>
